<?xml version="1.0" standalone="no"?>
<!DOCTYPE svg PUBLIC "-//W3C//DTD SVG 20010904//EN"
 "http://www.w3.org/TR/2001/REC-SVG-20010904/DTD/svg10.dtd">
<svg version="1.0" xmlns="http://www.w3.org/2000/svg"
 width="1098.000000pt" height="1095.000000pt" viewBox="0 0 1098.000000 1095.000000"
 preserveAspectRatio="xMidYMid meet">

<g transform="translate(0.000000,1095.000000) scale(0.100000,-0.100000)"
fill="#000000" stroke="none">
<path d="M5245 9749 c-302 -24 -632 -116 -897 -250 -206 -104 -471 -301 -581
-431 -36 -43 -39 -50 -29 -73 10 -22 8 -31 -11 -60 -14 -23 -27 -33 -37 -29
-8 3 -21 8 -27 11 -15 6 -57 -37 -129 -132 -63 -84 -107 -169 -107 -207 0 -21
-5 -27 -21 -25 -17 2 -25 -10 -45 -60 -24 -61 -26 -63 -60 -63 -51 0 -442 36
-596 54 -376 46 -980 71 -1084 46 -84 -20 -151 -90 -151 -159 0 -36 51 -80
155 -135 177 -92 315 -240 435 -468 141 -266 291 -411 615 -591 250 -139 676
-297 802 -297 25 0 43 -11 88 -57 47 -48 53 -58 40 -66 -46 -25 -123 -99 -150
-142 -27 -44 -30 -56 -29 -129 0 -64 6 -95 26 -144 l26 -64 -42 -43 c-96 -97
-144 -193 -167 -334 -6 -41 -20 -78 -38 -105 -37 -54 -66 -111 -100 -199 -15
-40 -50 -107 -78 -148 -70 -104 -150 -247 -173 -306 -10 -28 -28 -101 -40
-164 -12 -63 -32 -172 -45 -244 -67 -357 -92 -596 -83 -806 l4 -106 -224 -6
c-124 -4 -307 -7 -408 -7 -179 0 -182 0 -177 -21 3 -11 1 -30 -5 -42 -20 -42
-32 -94 -127 -577 -53 -267 -112 -561 -130 -655 -67 -334 -117 -621 -116 -666
1 -156 142 -309 336 -364 33 -10 83 -30 110 -45 93 -52 150 -63 319 -57 121 3
186 11 326 40 196 40 499 91 635 106 50 6 131 15 181 21 50 5 125 10 168 10
l78 0 -3 -102 -4 -102 185 -27 c102 -15 244 -37 315 -48 l130 -21 58 30 c32
16 60 30 62 30 2 0 5 -28 7 -62 l3 -63 135 -6 c173 -8 1616 -8 1820 0 l155 6
3 63 c2 34 7 62 12 62 5 0 32 -14 60 -30 54 -32 75 -35 130 -20 30 8 202 34
475 74 l80 11 -4 103 -3 102 44 0 c57 0 381 -27 483 -40 144 -18 277 -41 505
-88 192 -38 247 -46 375 -49 166 -5 231 6 314 53 25 14 77 35 114 45 223 63
367 205 367 362 0 45 -35 252 -125 737 -31 168 -67 366 -80 440 -13 74 -39
221 -58 325 -19 105 -45 249 -58 320 -12 72 -25 133 -28 137 -3 3 -172 8 -376
9 -203 2 -418 5 -477 7 l-108 4 0 204 c0 123 -6 248 -15 318 -16 124 -106 621
-130 723 -19 82 -79 201 -170 338 -43 64 -94 159 -123 228 -28 65 -66 142 -85
170 -26 38 -36 67 -40 107 -12 119 -61 217 -163 323 l-47 49 27 56 c51 109 51
200 1 286 -25 43 -93 113 -130 133 -17 10 -16 14 18 54 20 23 37 46 37 50 0 3
40 14 89 23 157 29 410 121 636 231 385 190 580 347 709 576 32 57 79 138 103
180 84 148 243 291 446 403 86 47 102 70 87 125 -15 58 -65 106 -129 125 -95
28 -569 17 -966 -23 -44 -5 -199 -20 -345 -34 -146 -15 -301 -31 -344 -37 -44
-5 -82 -8 -84 -5 -3 2 -14 31 -24 62 -25 74 -34 84 -67 77 -24 -6 -25 -5 -8 8
17 13 17 17 -18 83 -41 76 -126 193 -174 239 -27 26 -33 28 -56 18 -32 -15
-35 -15 -35 1 0 6 -9 23 -19 37 -17 22 -18 27 -5 52 13 26 12 29 -18 64 -18
21 -82 80 -142 131 -481 412 -1099 605 -1761 552z m345 -129 c397 -28 715
-125 1035 -316 114 -68 312 -214 388 -285 l52 -49 -53 -50 c-82 -77 -120 -103
-138 -96 -13 5 -4 17 42 52 32 25 65 49 73 53 11 7 7 15 -20 40 -33 31 -20 29
31 -6 l25 -17 -19 21 c-20 24 -174 128 -276 188 -116 67 -130 75 -130 68 0 -3
-8 1 -17 9 -38 32 -122 67 -154 63 -17 -3 -34 -7 -38 -11 -3 -4 7 -4 22 0 19
4 26 3 22 -4 -3 -5 1 -10 9 -10 9 0 16 5 16 11 0 5 5 7 11 3 8 -5 8 -9 -1 -14
-8 -5 -7 -9 5 -13 9 -4 13 -3 10 3 -3 6 -1 10 4 10 6 0 16 -9 23 -19 9 -16 15
-17 26 -9 11 10 13 8 10 -7 -1 -10 3 -20 11 -23 9 -3 11 0 6 8 -5 8 -3 11 6 8
8 -3 13 -10 12 -15 -1 -5 15 -18 35 -28 44 -23 88 -55 76 -55 -5 0 -19 7 -31
15 -67 47 -327 160 -506 220 -87 29 -288 68 -440 86 -145 17 -529 6 -672 -19
-336 -60 -640 -181 -970 -386 -60 -38 -118 -76 -128 -84 -26 -23 -32 -7 -7 18
30 30 21 34 -14 7 -24 -20 -26 -25 -17 -50 7 -17 18 -27 30 -27 24 0 33 -13
25 -34 -5 -12 -18 -5 -65 36 -70 61 -76 47 76 175 258 217 578 383 891 462
152 39 282 59 437 70 67 4 127 9 132 9 6 1 75 -3 155 -8z m135 -381 c61 -11
149 -27 196 -34 119 -20 407 -118 536 -184 75 -37 155 -108 149 -130 -4 -12
16 -26 82 -58 48 -23 111 -58 141 -78 48 -32 58 -35 77 -24 22 11 44 6 44 -11
0 -10 138 -245 173 -294 20 -29 20 -29 1 -22 -10 4 -48 13 -84 18 -64 11 -66
12 -97 62 -70 114 -203 230 -328 287 -36 16 -65 33 -65 37 0 5 -17 28 -37 52
-76 89 -221 156 -318 148 -52 -4 -58 -3 -91 29 -63 59 -89 68 -199 68 -87 0
-105 3 -138 23 -20 13 -35 27 -33 30 5 8 -28 11 -146 14 -64 2 -91 -1 -115
-15 -30 -16 -36 -16 -62 -2 -46 23 -134 30 -199 15 -31 -8 -59 -17 -62 -20 -3
-3 -22 -16 -43 -28 -33 -19 -47 -21 -106 -16 -85 8 -151 -12 -211 -63 -39 -34
-48 -37 -109 -38 -36 -1 -84 -10 -106 -19 -77 -33 -162 -96 -198 -147 -28 -40
-51 -58 -109 -87 -137 -69 -220 -145 -300 -273 -29 -45 -32 -47 -96 -57 -37
-6 -75 -13 -85 -17 -11 -5 6 31 48 101 36 60 80 137 98 172 17 34 36 62 41 62
5 0 17 -7 27 -15 15 -15 22 -12 82 29 35 25 99 62 141 82 50 24 75 41 72 50
-11 28 139 136 249 178 277 105 372 135 448 137 25 1 44 6 42 10 -3 4 25 12
62 19 38 6 91 15 118 19 28 5 129 9 225 10 136 0 199 -4 285 -20z m1091 -167
c-4 -3 -14 2 -24 12 -16 18 -16 18 6 6 13 -6 21 -14 18 -18z m-1453 -25 c43
-19 57 -37 72 -99 l13 -53 1 45 c2 83 50 120 153 120 67 0 152 -31 195 -72 20
-19 23 -19 45 -4 32 23 115 21 156 -4 36 -22 88 -98 96 -139 2 -14 8 -44 11
-65 9 -52 25 -29 25 36 0 62 17 78 86 78 127 0 265 -99 294 -213 6 -23 14 -51
17 -62 4 -14 -4 -10 -29 15 -53 52 -65 61 -121 82 -28 11 -64 29 -80 40 -36
26 -85 20 -136 -17 l-36 -26 -22 28 c-13 16 -23 34 -23 40 0 7 -3 12 -7 11 -5
-1 -26 6 -47 15 -22 10 -49 20 -60 22 -12 3 -61 14 -111 26 -105 25 -198 22
-309 -10 -38 -11 -72 -18 -77 -16 -4 3 -10 -3 -14 -14 -5 -18 -9 -18 -63 10
-55 29 -116 44 -224 56 -32 3 -67 -2 -110 -15 -35 -11 -80 -20 -100 -19 -38 1
-50 11 -25 20 8 4 9 6 0 6 -6 1 -18 -6 -26 -14 -13 -13 -16 -13 -21 1 -3 8 -2
13 2 11 4 -3 13 1 19 9 8 7 9 15 3 19 -13 8 -91 -64 -106 -100 l-13 -30 0 35
c1 69 45 148 99 179 66 37 157 23 145 -22 -5 -22 -5 -22 6 -1 12 23 101 80
145 94 45 13 141 11 177 -3z m-613 -182 c5 -13 12 -47 16 -75 6 -48 6 -50 -17
-50 -13 0 -42 9 -64 19 -98 44 -162 35 -232 -32 -36 -34 -41 -31 -19 11 40 76
166 152 252 152 49 0 55 -3 64 -25z m-750 0 c11 -13 10 -15 -6 -9 -18 5 -18 5
-1 -9 9 -8 17 -18 17 -22 0 -5 -9 0 -19 9 -11 10 -17 24 -14 32 6 18 8 17 23
-1z m865 -25 c-3 -5 -12 -10 -18 -10 -7 0 -6 4 3 10 19 12 23 12 15 0z m-1132
-16 c3 -3 -18 -41 -47 -83 -86 -124 -108 -165 -93 -180 10 -10 7 -10 -15 0
-16 7 -28 16 -28 20 0 23 154 249 169 249 4 0 10 -3 14 -6z m2174 0 c-3 -3
-12 -4 -19 -1 -8 3 -5 6 6 6 11 1 17 -2 13 -5z m1373 -121 c38 -58 70 -112 70
-119 0 -28 -26 -18 -41 15 -9 20 -46 76 -83 124 -64 85 -77 119 -36 97 11 -6
51 -58 90 -117z m-1982 81 c50 -20 91 -52 107 -84 19 -38 33 -146 17 -136 -7
4 -12 1 -12 -8 0 -9 -8 -24 -19 -35 -15 -15 -26 -17 -67 -10 -96 16 -231 10
-366 -16 -33 -6 -41 -4 -68 23 -27 27 -43 71 -21 58 5 -3 11 1 14 9 4 9 1 12
-9 8 -33 -12 -6 59 36 95 12 11 13 12 0 6 -35 -17 -61 -50 -67 -87 -7 -48 -23
-30 -23 27 0 33 7 45 39 77 85 80 324 120 439 73z m517 11 c48 -9 109 -25 136
-36 57 -25 119 -89 119 -123 0 -35 -28 -109 -45 -119 -8 -4 -15 -15 -15 -24 0
-17 -6 -16 -145 11 -101 19 -159 20 -265 1 -79 -14 -86 -14 -98 2 -32 44 -42
146 -17 192 18 36 97 89 144 97 20 3 41 7 46 9 21 7 55 5 140 -10z m565 -136
c99 -53 144 -111 227 -299 25 -56 13 19 -17 107 -39 111 -64 203 -57 209 15
15 130 -74 195 -150 62 -73 129 -215 147 -309 16 -85 21 -332 6 -341 -4 -3 -9
22 -9 55 -1 98 -24 189 -48 189 -8 0 -14 4 -14 10 0 5 -21 23 -47 41 -25 18
-56 42 -67 53 -64 64 -120 107 -133 102 -8 -3 -12 -2 -10 2 8 12 -89 73 -130
82 -21 5 -84 12 -141 16 -119 8 -145 22 -163 86 -13 50 -3 131 19 151 54 46
151 45 242 -4z m-1661 20 c38 -13 47 -28 56 -96 8 -63 -7 -118 -38 -135 -12
-7 -76 -18 -142 -24 -66 -7 -132 -16 -147 -20 -25 -6 -28 -3 -28 17 0 14 -4
19 -8 13 -12 -18 -53 -24 -59 -8 -4 11 -9 12 -19 3 -8 -6 -3 14 12 47 31 71
110 155 178 189 55 28 139 33 195 14z m-1121 -215 c28 -9 52 -22 52 -28 0 -6
-6 -45 -14 -86 -36 -185 -31 -385 20 -829 23 -204 25 -256 9 -194 -7 25 -8 26
-15 8 -6 -17 -9 -13 -19 22 -16 57 -58 339 -66 440 -7 77 -8 82 -26 72 -21
-11 -109 10 -137 33 -14 12 -15 -14 -10 -247 6 -278 0 -274 -27 17 -29 302
-12 606 42 772 l15 49 62 -6 c33 -3 85 -14 114 -23z m3911 -71 c34 -154 42
-235 42 -433 0 -152 -19 -411 -35 -465 -2 -5 -2 83 -2 197 1 115 0 208 -2 208
-2 0 -12 -5 -23 -10 -10 -6 -47 -12 -81 -14 l-63 -4 -12 -128 c-13 -142 -50
-370 -64 -394 -5 -8 -9 -11 -9 -6 0 5 -7 3 -15 -4 -20 -16 -20 -24 10 226 35
283 43 552 21 704 -9 63 -19 129 -22 146 -6 30 -5 31 58 48 34 10 68 20 73 21
6 2 31 4 56 4 l46 1 22 -97z m-3289 48 c-6 -12 -15 -21 -21 -21 -5 0 -2 11 7
25 20 30 31 26 14 -4z m1089 -15 c67 -35 130 -135 132 -211 l1 -40 10 45 c24
119 96 196 204 221 63 14 151 1 230 -35 30 -14 61 -23 69 -20 25 10 17 -5 -33
-64 -72 -85 -93 -118 -86 -139 4 -13 3 -14 -3 -5 -8 10 -13 9 -24 -4 -11 -15
-12 -16 0 -10 9 6 12 5 9 -5 -3 -8 -11 -13 -17 -11 -7 1 -10 -1 -7 -6 3 -5 -4
-32 -14 -61 -11 -28 -20 -59 -19 -69 0 -9 5 -2 10 16 5 17 14 32 19 32 5 0 7
6 4 14 -3 7 2 16 11 20 9 3 15 14 13 23 -2 10 2 18 9 18 6 0 25 18 41 40 76
104 160 154 292 175 117 19 200 8 297 -41 207 -104 346 -343 342 -587 l-2 -67
-7 55 c-8 63 -28 131 -38 127 -13 -4 -52 30 -44 38 4 4 -1 5 -10 2 -10 -4 -18
-3 -18 1 -1 4 -12 21 -26 37 -15 17 -23 23 -19 15 3 -8 -4 -1 -17 15 -135 175
-319 239 -531 185 -159 -39 -243 -92 -331 -205 -48 -63 -76 -89 -76 -71 0 21
25 66 37 66 12 0 13 3 3 15 -10 12 -16 6 -40 -38 -37 -70 -77 -94 -130 -78
-49 15 -90 65 -90 111 0 49 -12 28 -21 -35 -10 -72 -45 -107 -106 -104 -27 2
-27 2 -3 6 13 3 33 11 42 18 16 10 11 11 -30 7 -48 -4 -49 -4 -95 49 -26 30
-47 49 -47 43 0 -14 61 -93 90 -117 16 -13 19 -22 12 -29 -16 -16 -57 14 -87
62 -92 145 -218 248 -357 292 -57 18 -96 23 -183 23 -110 0 -110 0 -200 -44
-70 -34 -104 -59 -153 -110 -35 -36 -72 -82 -83 -101 -17 -33 -18 -33 -19 -10
0 20 -2 22 -10 10 -5 -8 -10 -12 -10 -8 0 4 -12 -5 -26 -19 -30 -30 -43 -75
-44 -145 0 -39 -3 -46 -16 -41 -13 5 -15 17 -9 77 18 194 78 332 194 446 132
131 252 174 421 151 105 -14 175 -46 245 -112 30 -29 55 -48 55 -43 1 5 12 -4
26 -21 17 -21 23 -24 18 -10 -4 11 -12 27 -18 35 -6 8 2 4 18 -10 27 -23 28
-24 17 -3 -19 38 -130 172 -155 188 -38 25 -41 46 -4 28 28 -15 36 -14 107 10
42 14 85 28 96 31 37 9 153 -3 184 -18z m-3244 -26 c201 -11 404 -28 700 -60
99 -10 255 -24 347 -31 92 -7 173 -16 179 -20 8 -5 7 -31 -6 -98 -16 -80 -20
-91 -39 -91 -12 0 -86 14 -166 30 -80 16 -192 35 -250 41 -116 12 -284 45
-315 62 -19 10 -18 12 10 18 26 6 23 7 -20 9 -27 2 -77 5 -110 7 -33 3 -85 5
-115 4 -30 0 -138 6 -240 14 -183 15 -265 32 -374 79 -95 42 45 55 399 36z
m7189 0 c14 -5 26 -13 26 -17 0 -12 -106 -53 -175 -69 -33 -8 -123 -19 -200
-24 -251 -20 -397 -35 -390 -41 3 -4 -16 -5 -42 -3 -32 3 -43 1 -34 -5 17 -11
2 -16 -84 -26 -27 -3 -108 -17 -180 -30 -172 -32 -536 -88 -539 -84 -1 2 -8
36 -15 74 -7 39 -15 80 -17 92 -7 28 -5 28 296 53 135 12 324 29 420 40 183
19 433 39 560 43 197 7 351 6 374 -3z m-5078 -32 c-9 -14 -13 -28 -9 -33 5 -4
2 -5 -5 -1 -10 6 -9 14 5 36 9 16 19 28 21 26 2 -3 -4 -15 -12 -28z m-16 -83
c0 -5 -5 -3 -10 5 -5 8 -10 20 -10 25 0 6 5 3 10 -5 5 -8 10 -19 10 -25z m65
-25 c-10 -11 -20 -18 -23 -16 -5 6 21 35 32 36 5 0 1 -9 -9 -20z m2396 -7 c13
-16 12 -17 -3 -4 -10 7 -18 15 -18 17 0 8 8 3 21 -13z m-2846 -40 c28 -27 36
-63 41 -173 l5 -105 -19 45 c-11 25 -23 73 -27 108 -7 59 -9 64 -41 80 -19 9
-34 23 -34 33 0 31 49 39 75 12z m3412 9 c8 -5 10 -26 6 -67 -6 -54 -7 -57
-14 -30 -10 38 -47 46 -53 12 -30 -157 -33 -182 -35 -234 -1 -13 -5 -23 -11
-23 -12 0 -13 97 0 214 7 70 14 94 31 112 22 24 53 30 76 16z m1743 -42 c-11
-7 -12 -10 -2 -10 9 0 6 -10 -10 -29 -13 -16 -27 -28 -33 -27 -5 0 -9 -5 -7
-12 1 -7 -21 -43 -49 -79 -28 -37 -53 -73 -56 -80 -3 -7 -10 -10 -16 -6 -5 3
-7 2 -4 -4 3 -5 -6 -33 -20 -63 -19 -40 -27 -49 -35 -39 -7 10 -8 9 -4 -6 5
-20 -54 -142 -65 -134 -8 6 -39 -21 -39 -34 0 -6 7 -2 15 9 8 10 15 14 15 9 0
-21 -92 -116 -107 -110 -10 3 -13 1 -10 -9 3 -8 -2 -20 -10 -28 -15 -11 -16
-11 -10 5 5 13 3 17 -5 14 -7 -2 -12 -12 -10 -22 3 -13 -1 -16 -13 -11 -10 3
-14 2 -10 -5 8 -12 -7 -25 -85 -76 -30 -20 -57 -40 -60 -44 -14 -20 -163 -97
-178 -92 -10 4 -13 2 -8 -6 8 -13 -123 -78 -299 -148 -118 -47 -146 -55 -163
-44 -9 5 8 16 49 31 77 28 259 116 253 122 -2 3 16 16 40 29 74 39 43 34 -41
-7 -43 -21 -82 -37 -86 -36 -5 1 -6 -1 -3 -6 6 -10 -80 -36 -93 -27 -6 3 -11
0 -11 -8 0 -9 -19 -20 -47 -27 -27 -8 -51 -18 -55 -23 -3 -6 -19 -11 -35 -12
-16 -1 -34 -5 -41 -9 -7 -4 -12 -2 -12 3 0 6 4 11 9 11 5 0 11 15 14 33 8 44
64 246 77 275 6 13 15 20 21 16 8 -4 9 1 4 17 -4 17 -3 20 3 10 12 -17 35 -4
28 16 -3 8 -2 12 2 9 4 -2 19 19 32 47 30 62 122 158 205 212 70 46 251 136
380 190 50 20 128 55 175 77 91 43 179 76 146 55 -103 -67 -39 -47 86 26 25
16 60 32 77 37 l30 8 -22 -30 c-12 -17 -33 -43 -46 -57 -38 -42 -83 -111 -72
-111 6 0 16 10 22 23 18 33 141 179 146 173 3 -3 12 1 20 9 8 8 20 15 26 15 7
0 6 -4 -3 -10z m-6934 -12 c37 -31 88 -81 75 -73 -10 5 -12 4 -7 -3 4 -7 12
-12 18 -12 7 0 23 -10 37 -22 17 -16 14 -10 -10 21 -61 78 -73 94 -63 90 5 -2
56 -28 113 -57 108 -54 147 -64 67 -17 -25 15 -46 29 -46 31 0 6 88 -31 175
-74 44 -21 150 -70 235 -107 377 -165 500 -251 570 -399 31 -65 44 -78 53 -53
4 8 6 7 6 -3 1 -8 11 -33 22 -55 12 -22 34 -87 50 -144 15 -57 39 -125 53
-152 l25 -49 -30 15 c-16 9 -68 29 -115 46 -106 37 -194 78 -194 90 0 5 -5 9
-12 9 -31 0 -254 119 -361 192 -16 11 -30 18 -33 16 -4 -5 42 -47 54 -49 4 -1
6 -6 4 -11 -2 -6 4 -8 13 -5 8 4 15 2 15 -3 0 -6 6 -10 14 -10 8 0 21 -6 28
-14 8 -7 25 -17 38 -21 l24 -8 -21 -17 -22 -17 29 1 c15 1 26 4 23 9 -6 10 9
9 26 -2 11 -7 10 -11 -5 -20 -24 -13 -9 -15 16 -1 13 7 21 7 25 0 3 -5 0 -10
-7 -11 -7 0 -2 -4 10 -10 13 -5 29 -6 35 -2 6 4 8 0 4 -10 -4 -11 4 -19 31
-30 20 -9 47 -24 59 -36 12 -11 32 -22 45 -25 13 -2 67 -20 121 -40 53 -20 97
-33 97 -30 0 4 7 1 15 -6 8 -7 15 -10 15 -6 0 4 14 -1 31 -10 21 -11 34 -12
38 -5 4 6 18 1 36 -15 l30 -26 -30 8 c-187 44 -633 223 -618 247 3 6 1 7 -5 3
-12 -7 -123 50 -170 88 -15 12 -39 28 -54 35 -15 8 -43 27 -63 44 -28 23 -34
32 -23 39 9 6 5 7 -11 3 -20 -6 -23 -4 -18 9 4 11 3 15 -4 11 -12 -8 -41 14
-34 25 3 5 0 12 -6 16 -8 5 -9 3 -4 -6 5 -8 3 -11 -6 -8 -8 3 -13 12 -13 21 1
10 -4 13 -14 9 -11 -4 -14 -1 -9 12 4 9 3 15 -2 12 -19 -12 -97 97 -172 244
-67 131 -144 246 -216 323 -19 20 -1 24 23 5z m4348 -157 c6 -8 -153 -3 -163
5 -2 2 32 4 77 4 44 0 83 -4 86 -9z m54 -10 c11 -7 10 -9 -3 -14 -9 -4 -13 -3
-10 2 3 5 -3 12 -12 14 -13 3 -14 5 -3 6 8 0 21 -3 28 -8z m-1475 -53 c15 -7
29 -18 31 -25 4 -9 -49 15 -73 34 -11 8 18 2 42 -9z m1582 -17 l20 -24 -27 18
c-15 9 -25 21 -22 27 3 5 7 8 8 6 0 -2 10 -14 21 -27z m-2090 -1 c-3 -5 -12
-10 -18 -10 -7 0 -6 4 3 10 19 12 23 12 15 0z m-39 -36 c-4 -9 -9 -15 -11 -12
-3 3 -3 13 1 22 4 9 9 15 11 12 3 -3 3 -13 -1 -22z m-29 -14 c-4 -24 -27 -51
-27 -31 0 14 18 51 25 51 3 0 3 -9 2 -20z m130 -38 c-77 -100 -104 -227 -72
-338 9 -32 22 -65 28 -73 7 -8 -7 -2 -31 14 -25 16 -52 46 -64 69 -38 74 -10
202 64 288 20 24 108 98 116 98 2 0 -17 -26 -41 -58z m-667 -69 c-15 -33 -23
-44 -29 -34 -6 9 -10 5 -16 -16 l-7 -28 -14 34 c-8 18 -14 47 -13 65 1 30 1
30 9 6 7 -25 7 -25 11 5 3 21 9 30 22 29 9 -1 17 4 17 12 0 8 5 14 10 14 6 0
10 8 11 18 1 9 5 0 11 -20 8 -30 6 -45 -12 -85z m908 101 c17 -12 22 -25 22
-58 0 -52 -31 -101 -80 -127 -50 -27 -86 -24 -121 10 -39 40 -38 77 4 124 56
64 127 85 175 51z m1586 1 c36 -17 86 -88 86 -121 0 -31 -36 -71 -70 -79 -42
-9 -114 25 -140 67 -26 43 -26 102 0 128 24 24 79 26 124 5z m170 -47 c80 -81
110 -151 104 -250 -3 -58 -8 -72 -33 -99 -30 -31 -64 -54 -70 -47 -2 2 5 28
15 58 11 30 19 78 20 105 0 58 -24 159 -46 193 -8 12 -12 27 -9 33 4 5 2 8 -3
7 -5 -2 -21 12 -36 30 -48 56 -7 35 58 -30z m101 12 c10 -11 16 -20 13 -20 -3
0 -13 9 -23 20 -10 11 -16 20 -13 20 3 0 13 -9 23 -20z m529 -45 c3 -8 1 -15
-4 -15 -6 0 -10 7 -10 15 0 8 2 15 4 15 2 0 6 -7 10 -15z m-464 -65 c11 -22
18 -40 15 -40 -2 0 -14 18 -25 40 -11 22 -18 40 -15 40 2 0 14 -18 25 -40z
m-1514 -166 c4 -24 -1 -41 -21 -72 -27 -41 -74 -68 -59 -34 25 61 33 93 34
142 l0 55 20 -30 c11 -16 23 -44 26 -61z m708 -69 c18 -43 5 -45 -35 -6 -33
34 -37 67 -12 114 l17 32 8 -53 c4 -29 14 -68 22 -87z m-1641 60 c-3 -9 -8
-14 -10 -11 -3 3 -2 9 2 15 9 16 15 13 8 -4z m1328 -6 c19 -7 45 -21 58 -33
37 -33 121 -166 121 -192 0 -33 -15 -30 -36 6 -23 38 -58 51 -114 45 -25 -4
-53 -7 -62 -8 -10 -1 -18 -4 -18 -7 0 -8 -124 5 -139 15 -19 11 -56 -2 -86
-32 -26 -26 -27 -26 -21 -5 4 12 5 22 2 22 -3 0 -10 -15 -15 -32 l-9 -33 -1
31 c-1 28 26 77 53 96 21 15 18 -3 -5 -30 l-24 -27 26 23 c17 15 26 33 26 52
0 83 138 144 244 109z m-1352 -145 c17 -65 72 -119 164 -163 169 -80 303 -87
502 -26 91 28 210 95 274 154 49 46 53 48 50 24 -4 -43 3 -65 32 -98 32 -36
56 -44 76 -24 7 7 28 2 71 -20 77 -39 136 -41 210 -6 41 19 63 23 92 19 33 -5
41 -3 62 21 31 36 37 64 22 103 -7 17 -9 32 -5 32 4 0 38 -27 75 -59 117 -103
246 -158 430 -181 236 -30 482 94 510 256 10 62 21 73 45 45 21 -24 25 -55 21
-146 -2 -49 -51 -200 -65 -200 -16 0 -35 -15 -35 -28 0 -7 7 -3 15 7 8 11 15
14 15 7 0 -14 -18 -50 -34 -67 -6 -7 -19 -22 -29 -34 -18 -21 -19 -21 -38 -4
-10 9 -22 14 -27 9 -4 -4 -1 -10 6 -12 10 -4 10 -8 1 -19 -12 -15 -29 -10 -29
9 0 7 4 6 10 -3 6 -9 10 -10 10 -3 0 23 -17 22 -40 -2 -17 -18 -19 -25 -9 -26
8 0 3 -6 -11 -12 -14 -6 -43 -29 -65 -50 -62 -58 -137 -97 -200 -102 -22 -1
-60 -12 -85 -23 -31 -14 -71 -22 -127 -23 l-82 -3 -30 -43 c-57 -80 -174 -114
-252 -74 l-42 22 17 -23 c89 -122 62 -234 -73 -301 -58 -28 -75 -32 -151 -32
-104 0 -173 27 -225 88 -36 41 -61 97 -44 97 5 0 9 -6 9 -14 0 -8 18 -34 41
-60 67 -74 192 -106 300 -76 47 13 149 82 166 112 13 25 17 86 7 113 -5 13
-12 7 -28 -27 -41 -81 -162 -137 -265 -122 -136 20 -231 128 -187 213 l16 31
-35 -20 c-43 -24 -65 -25 -136 -4 -41 12 -65 28 -100 65 l-47 49 -78 0 c-106
0 -161 17 -297 88 -63 34 -117 59 -120 56 -3 -3 -4 2 -1 13 4 20 -60 68 -82
59 -10 -4 -10 2 -2 25 7 20 15 28 24 25 62 -25 59 -20 -8 17 -27 15 -48 22
-48 16 0 -5 7 -12 15 -15 8 -4 15 -10 15 -15 0 -6 -9 -5 -20 1 -11 6 -20 15
-20 21 0 16 -27 39 -35 31 -4 -4 -6 0 -3 8 6 19 -18 44 -34 34 -8 -5 -9 -2 -5
9 3 9 3 16 -1 16 -21 -3 -29 4 -41 36 -7 20 -17 32 -23 29 -7 -4 -8 2 -3 17 9
28 3 24 -15 -11 -7 -14 -9 -22 -5 -18 5 5 19 -8 32 -27 26 -38 29 -56 11 -52
-73 14 -108 334 -45 402 9 10 13 4 18 -29 4 -22 12 -59 18 -82z m142 53 c194
-156 447 -181 689 -66 36 17 81 38 100 46 l35 15 -22 -24 c-13 -13 -54 -39
-93 -58 -38 -19 -70 -39 -70 -43 0 -5 -4 -5 -10 -2 -5 3 -10 1 -10 -4 0 -6
-12 -11 -26 -11 -14 0 -23 -4 -19 -10 17 -28 -126 -43 -258 -28 -54 6 -96 20
-167 54 -52 25 -103 53 -112 62 -10 8 -18 12 -18 8 0 -4 -22 17 -50 46 -48 51
-59 68 -42 68 4 0 37 -24 73 -53z m2353 41 c-39 -68 -111 -123 -218 -164 -33
-13 -66 -30 -75 -38 -10 -8 -58 -17 -123 -23 -136 -12 -190 -1 -321 66 -82 42
-187 108 -187 117 0 1 53 -21 118 -51 150 -68 251 -90 382 -82 62 3 120 14
167 30 71 24 191 96 227 136 21 23 42 29 30 9z m217 -333 c-6 -49 -20 -118
-32 -152 -71 -213 -315 -419 -582 -493 -67 -19 -304 -47 -313 -37 -3 3 24 10
61 16 142 25 360 119 498 215 77 55 174 149 218 212 68 99 139 291 139 378 0
17 4 42 8 56 12 43 14 -95 3 -195z m-2844 13 c-3 -8 -6 -5 -6 6 -1 11 2 17 5
13 3 -3 4 -12 1 -19z m34 -105 c6 -7 9 -20 5 -28 -3 -9 -2 -13 4 -10 6 3 10 1
10 -5 0 -6 9 -20 20 -32 10 -12 17 -25 14 -30 -4 -6 -12 1 -18 14 -7 12 -18
22 -24 21 -13 -3 -30 52 -37 117 l-5 45 10 -39 c6 -22 15 -45 21 -53z m125 10
c12 -16 15 -16 23 -3 6 8 13 11 18 7 4 -5 3 -11 -2 -15 -19 -13 -16 -34 7 -56
13 -11 26 -25 28 -31 3 -5 9 -9 13 -7 5 1 5 -3 1 -9 -5 -9 -2 -10 9 -6 11 4
14 2 11 -7 -8 -20 14 -30 34 -15 13 10 13 9 -1 -7 -18 -19 -20 -18 -73 41 -30
33 -54 64 -54 69 0 6 -10 20 -22 33 -12 13 -18 23 -13 23 4 0 14 -8 21 -17z
m3414 -3 c0 -5 -4 -10 -9 -10 -5 0 -18 -3 -28 -6 -16 -6 -16 -5 2 9 23 19 35
21 35 7z m-100 -30 c0 -5 -10 -10 -22 -9 -22 0 -22 1 -3 9 11 5 21 9 23 9 1 1
2 -3 2 -9z m-3760 -122 c10 -21 16 -38 14 -38 -10 0 -44 67 -43 85 0 14 2 16
6 5 3 -8 14 -32 23 -52z m410 -68 c20 -39 49 -68 37 -37 -4 12 -2 15 11 11 10
-4 6 4 -11 20 -15 14 -25 26 -21 26 4 0 -1 7 -12 15 -10 8 -15 15 -10 15 5 0
3 8 -4 18 -7 9 1 1 19 -18 80 -88 150 -155 191 -183 53 -37 75 -57 62 -57 -20
0 -42 12 -37 20 3 4 -8 15 -23 24 l-27 17 24 -20 c13 -12 20 -21 17 -21 -4 0
1 -11 9 -24 10 -15 46 -36 94 -55 90 -36 115 -41 54 -10 -24 12 -43 25 -43 30
0 4 -7 5 -17 2 -11 -4 -14 -3 -9 6 5 8 0 10 -17 7 -13 -2 -30 0 -37 4 -38 23
73 -1 125 -27 93 -47 278 -112 340 -119 89 -11 63 -25 -32 -18 -118 9 -261 46
-358 93 -97 46 -209 127 -199 143 4 6 3 8 -3 5 -22 -14 -193 195 -193 236 0
13 45 -53 70 -103z m3009 66 c-12 -26 -62 -44 -91 -33 -7 3 1 6 19 6 31 1 73
32 73 55 0 5 2 7 5 4 3 -3 0 -17 -6 -32z m-286 -283 c-10 -26 -78 -139 -123
-203 -21 -30 -36 -58 -33 -62 2 -5 0 -8 -6 -8 -5 0 -13 -9 -16 -21 -8 -26 -18
-18 -21 18 -1 16 0 22 3 16 2 -7 9 -13 14 -13 6 0 5 9 -2 21 -8 16 -8 24 1 33
8 8 10 7 5 -6 -13 -34 11 -18 48 32 21 28 35 56 31 62 -4 7 -3 8 4 4 8 -4 12
0 12 12 0 19 28 66 65 110 23 27 26 27 18 5z m-3099 -28 c145 -55 223 -104
336 -211 45 -42 82 -70 93 -69 10 2 14 -1 10 -8 -4 -7 0 -8 11 -4 10 4 15 3
11 -3 -4 -6 1 -17 9 -26 9 -8 16 -23 15 -32 0 -14 -2 -13 -9 3 -8 19 -60 74
-60 63 0 -3 41 -57 91 -119 50 -63 130 -172 177 -244 47 -71 94 -143 105 -159
41 -60 -6 -11 -107 112 -109 132 -163 192 -173 192 -4 0 4 -11 17 -25 23 -25
16 -37 -8 -13 -8 8 -12 8 -12 1 0 -6 7 -16 16 -24 13 -10 17 -10 25 2 7 11 9
11 9 -4 0 -10 4 -16 9 -12 5 3 12 2 14 -2 3 -5 -12 -8 -33 -9 -21 0 -38 2 -38
5 2 19 -4 24 -12 11 -7 -11 -8 -6 -5 15 2 17 4 30 5 30 1 0 3 10 6 21 3 21
-33 80 -44 70 -2 -3 1 -12 8 -21 10 -12 10 -15 -4 -15 -21 0 -21 -17 2 -23 14
-4 15 -5 1 -6 -29 -2 -72 90 -49 104 6 3 7 -1 4 -9 -3 -9 -4 -16 -1 -16 3 0 7
6 10 13 3 7 -10 28 -28 46 -28 27 -33 29 -28 12 3 -12 9 -24 14 -27 5 -3 9
-11 9 -17 0 -7 -10 3 -22 22 -19 30 -23 32 -29 15 -7 -17 -8 -17 -8 3 -1 12 4
23 10 25 6 2 -8 24 -31 48 -24 25 -39 38 -35 30 4 -8 -6 0 -24 18 -17 18 -35
30 -41 27 -5 -3 -21 2 -35 11 -15 10 -25 12 -25 5 0 -6 5 -11 11 -11 6 0 9 -7
6 -14 -4 -10 -1 -13 9 -9 9 3 14 -2 14 -17 0 -16 4 -20 19 -15 11 3 22 2 24
-2 11 -17 -49 -7 -78 13 -35 24 -62 40 -55 31 3 -3 25 -29 50 -58 25 -28 55
-63 68 -76 28 -31 24 -40 -6 -13 -34 32 -123 81 -141 78 -13 -3 -12 -7 7 -23
12 -11 22 -23 22 -28 0 -4 12 -19 28 -33 32 -30 14 -22 -48 22 -25 17 -93 60
-153 94 -143 83 -166 114 -133 178 23 43 92 101 122 102 7 0 42 -11 78 -25z
m3502 -31 c37 -37 52 -92 36 -128 -6 -13 -50 -47 -99 -76 -144 -87 -248 -158
-326 -225 -49 -42 -73 -57 -70 -44 3 10 9 16 14 13 5 -3 9 1 9 8 0 7 18 26 40
41 23 16 37 33 34 39 -5 7 -2 8 7 3 8 -5 11 -4 6 0 -4 5 3 20 15 34 13 14 16
21 8 15 -8 -6 -42 -30 -75 -53 l-60 -42 44 40 c46 43 48 52 4 24 -24 -16 -26
-16 -40 3 -12 16 -15 17 -23 4 -5 -8 -10 -21 -10 -27 0 -7 -7 -13 -16 -13 -9
0 -22 -7 -28 -16 -10 -13 -14 -12 -33 8 l-22 24 22 13 c20 13 21 13 8 -3 -11
-13 -11 -20 -3 -28 9 -9 12 -9 12 1 0 7 4 10 9 6 5 -3 12 4 16 15 3 11 13 20
21 20 13 0 19 13 15 34 -1 5 5 3 14 -4 13 -11 15 -10 9 4 -3 9 -16 16 -28 16
-17 0 -18 2 -6 10 11 7 22 2 44 -21 16 -18 34 -28 43 -25 8 3 19 6 25 6 6 0 7
7 4 16 -4 9 -2 13 5 8 8 -4 9 1 4 16 -6 18 -2 28 16 42 l24 19 -25 -12 c-14
-6 -35 -21 -47 -32 -28 -25 -43 -15 -19 12 10 11 15 24 12 30 -3 5 8 21 26 36
l33 27 -33 -19 c-19 -10 -57 -39 -85 -64 -48 -43 -51 -48 -37 -65 10 -11 10
-15 2 -10 -7 4 -20 2 -30 -6 -16 -12 -16 -11 -2 7 8 11 -3 4 -23 -14 -20 -19
-37 -41 -37 -48 0 -7 -4 -12 -9 -11 -10 4 -59 -51 -215 -239 -114 -138 -148
-174 -110 -115 48 73 114 184 114 193 0 5 4 9 9 9 9 0 24 32 26 55 0 6 6 9 13
8 7 -2 9 4 5 14 -4 10 -2 14 4 10 6 -4 30 19 53 50 79 104 194 226 270 286 41
33 77 64 79 70 2 6 -2 6 -9 2 -9 -5 -11 -4 -6 4 4 6 12 9 17 6 15 -10 50 5 43
18 -4 7 -4 9 0 5 4 -3 37 7 73 24 122 55 177 53 239 -8z m-3215 9 c13 -13 3
-36 -12 -28 -5 4 -13 14 -19 25 -8 14 -6 18 5 16 8 -1 20 -7 26 -13z m29 -43
c0 -5 -4 -10 -10 -10 -5 0 -10 5 -10 10 0 6 5 10 10 10 6 0 10 -4 10 -10z
m394 -230 c118 -196 305 -590 371 -780 13 -36 26 -73 30 -82 4 -11 3 -18 -4
-18 -6 0 -13 12 -17 28 -4 15 -14 38 -23 52 -25 39 -78 139 -113 214 -25 54
-33 64 -39 50 -6 -15 -8 -12 -9 11 -1 29 -22 69 -32 60 -2 -3 -11 6 -18 20 -8
14 -19 24 -26 21 -8 -3 -10 6 -7 33 3 23 1 41 -6 45 -7 5 -9 -4 -6 -26 4 -26
3 -29 -4 -13 -5 11 -10 30 -10 43 -1 12 -6 22 -12 22 -6 0 -8 7 -5 16 3 8 -1
26 -10 39 -9 13 -13 29 -9 35 3 5 1 10 -5 10 -8 0 -10 -9 -6 -25 4 -14 2 -25
-2 -25 -14 0 -22 79 -11 108 7 17 6 29 -1 36 -8 8 -9 6 -5 -5 4 -10 2 -20 -4
-24 -7 -4 -11 4 -11 19 0 40 -17 73 -40 79 -17 4 -20 10 -15 28 4 12 3 19 -1
16 -5 -3 -10 7 -11 21 -1 15 -13 48 -27 74 -13 25 -22 49 -19 52 12 12 44 -28
107 -134z m1982 34 c-18 -43 -38 -78 -44 -77 -7 2 -15 -9 -18 -25 -4 -15 -15
-44 -26 -65 -10 -21 -18 -43 -17 -50 2 -7 -5 -29 -14 -51 -9 -21 -15 -42 -12
-46 3 -5 0 -10 -6 -12 -6 -2 -12 -21 -14 -41 -2 -43 -12 -58 -25 -37 -8 12
-10 12 -16 -3 -3 -9 -11 -14 -16 -11 -6 4 -8 -2 -3 -17 7 -23 6 -23 -8 -5 -13
18 -15 16 -32 -35 -20 -61 -118 -254 -145 -284 -9 -11 -20 -29 -24 -39 -3 -10
-8 -17 -11 -15 -6 7 55 170 113 299 47 104 152 311 211 415 41 71 130 189 138
182 1 -2 -12 -39 -31 -83z m-2299 29 c0 -9 -4 -10 -14 -2 -7 6 -13 12 -13 14
0 1 6 2 13 2 8 0 14 -6 14 -14z m-152 -3 c3 -6 -1 -7 -9 -4 -18 7 -21 14 -7
14 6 0 13 -4 16 -10z m2642 -24 c-3 -8 1 -17 9 -20 15 -6 -12 -44 -98 -140
-10 -11 -18 -24 -18 -30 0 -5 -2 -7 -5 -4 -7 7 22 63 40 78 8 7 12 16 9 21 -3
5 0 9 5 9 6 0 11 7 11 15 0 8 5 15 10 15 6 0 10 7 10 16 0 11 5 14 18 9 13 -5
14 -3 5 6 -10 10 -8 39 4 39 3 0 3 -6 0 -14z m203 -6 c0 -5 -4 -10 -10 -10 -5
0 -10 5 -10 10 0 6 5 10 10 10 6 0 10 -4 10 -10z m-43 -32 c-3 -8 -6 -5 -6 6
-1 11 2 17 5 13 3 -3 4 -12 1 -19z m-2006 -168 c192 -260 362 -457 578 -669
86 -85 145 -146 131 -135 -14 10 -27 21 -30 24 -3 3 -19 16 -35 30 -21 17 -25
19 -14 5 30 -37 32 -50 5 -25 -20 18 -14 4 23 -50 27 -41 48 -76 46 -78 -7 -8
-91 64 -185 158 -117 117 -384 448 -442 549 -12 22 -31 42 -40 45 -10 2 -18
10 -18 18 0 10 3 9 10 -2 5 -8 10 -11 10 -6 0 5 -17 36 -39 70 -42 67 -119
217 -103 201 5 -5 52 -66 103 -135z m1340 98 c-5 -13 -31 -61 -58 -108 -120
-206 -198 -310 -358 -478 -90 -95 -167 -150 -208 -150 -25 0 -14 14 116 147
160 164 241 259 401 469 60 78 110 142 112 142 2 0 0 -10 -5 -22z m-2414 -88
c26 -19 48 -41 49 -48 1 -7 0 -8 -3 -2 -3 6 -11 6 -25 -1 -15 -8 -19 -8 -14 0
4 6 2 11 -3 11 -6 0 -11 -4 -11 -10 0 -5 -5 -10 -11 -10 -19 0 -109 -81 -102
-92 3 -6 1 -8 -5 -4 -6 3 -21 -8 -33 -26 -13 -17 -18 -29 -12 -25 12 8 30
-234 18 -252 -3 -6 -16 -11 -28 -11 -18 0 -19 -2 -7 -10 11 -7 7 -10 -19 -10
-29 0 -33 3 -28 21 6 21 5 20 -21 -3 -15 -14 -56 -42 -92 -63 -36 -21 -78 -47
-93 -57 -16 -11 -30 -18 -32 -16 -8 8 82 174 112 206 32 33 34 41 37 118 6
114 28 158 133 265 l86 88 29 -17 c16 -9 50 -33 75 -52z m423 37 c12 -4 12 -6
-2 -6 -10 -1 -22 9 -28 22 -9 19 -9 20 2 6 7 -9 20 -18 28 -22z m3237 -126
c41 -55 63 -126 63 -207 0 -59 2 -65 42 -111 38 -44 116 -188 106 -198 -2 -2
-31 14 -65 36 -61 40 -78 47 -196 74 -32 7 -60 15 -63 18 -3 2 -7 41 -9 86 -3
57 -2 80 6 75 7 -4 10 11 8 47 -2 60 -15 93 -30 83 -6 -3 -9 1 -7 9 2 9 -6 23
-17 32 -11 9 -13 13 -5 9 8 -4 4 5 -10 20 -13 14 -30 24 -38 21 -7 -2 -10 0
-7 5 8 12 -35 51 -50 46 -6 -2 -11 4 -12 13 -1 9 24 33 60 57 l62 41 64 -56
c35 -31 79 -76 98 -100z m-2098 -119 c240 -215 287 -262 265 -262 -11 0 -162
110 -255 185 -50 41 -95 73 -99 70 -3 -2 -33 23 -65 55 -33 33 -56 60 -51 60
4 0 17 -11 28 -25 11 -14 24 -25 30 -25 5 0 -14 28 -44 63 -73 84 -115 142
-95 131 8 -5 137 -118 286 -252z m571 254 c0 -3 -21 -32 -47 -64 -64 -80 -78
-102 -75 -113 3 -12 -4 -19 -78 -80 -103 -85 -170 -114 -170 -75 0 10 107 110
298 279 64 56 72 62 72 53z m930 -51 c-7 -9 -15 -13 -17 -11 -6 6 20 36 26 30
2 -2 -2 -10 -9 -19z m-151 -54 c-2 -6 -10 2 -17 17 -11 25 -11 25 4 10 9 -9
15 -21 13 -27z m-2162 7 c-3 -8 -6 -5 -6 6 -1 11 2 17 5 13 3 -3 4 -12 1 -19z
m2206 -30 c6 -20 -21 -54 -33 -42 -2 3 2 9 10 15 13 7 13 10 1 18 -7 5 -10 14
-7 20 11 17 23 13 29 -11z m-2902 -15 c-12 -20 -14 -14 -5 12 4 9 9 14 11 11
3 -2 0 -13 -6 -23z m2785 -25 c4 -7 3 -8 -4 -4 -7 4 -12 2 -12 -3 0 -11 -36
-51 -46 -51 -3 0 7 16 22 35 30 39 30 39 40 23z m-2778 -15 c-10 -2 -18 -14
-19 -26 0 -12 -3 -16 -6 -9 -8 20 5 42 24 41 17 -1 17 -2 1 -6z m738 -2 c-3
-5 1 -26 10 -46 20 -48 13 -54 -10 -10 -17 30 -17 65 -1 65 4 0 4 -4 1 -9z
m-699 -63 c-3 -7 -5 -2 -5 12 0 14 2 19 5 13 2 -7 2 -19 0 -25z m510 10 c-3
-8 -6 -5 -6 6 -1 11 2 17 5 13 3 -3 4 -12 1 -19z m2213 13 c0 -5 -6 -14 -14
-20 -12 -10 -13 -8 -9 8 5 21 23 30 23 12z m80 5 c0 -2 -8 -10 -17 -17 -16
-13 -17 -12 -4 4 13 16 21 21 21 13z m-3035 -26 c3 -6 -1 -7 -9 -4 -18 7 -21
14 -7 14 6 0 13 -4 16 -10z m3640 -12 c4 0 12 6 16 14 6 9 9 9 9 1 0 -6 -4
-15 -10 -18 -14 -9 -13 -36 2 -32 21 4 20 -28 -2 -53 l-20 -23 0 51 c0 28 -4
54 -10 57 -5 3 -10 12 -10 18 0 8 3 8 9 -1 4 -8 12 -14 16 -14z m-3445 -30 l9
-23 0 23 c1 17 7 22 27 22 22 0 24 -3 17 -22 -10 -31 -5 -121 9 -129 6 -4 8
-15 4 -24 -5 -15 -7 -15 -22 -1 -8 9 -22 16 -30 16 -8 0 -17 7 -20 15 -4 8
-10 13 -14 10 -10 -6 -100 34 -100 45 0 5 23 8 50 6 l50 -2 0 43 c0 48 6 54
20 21z m600 2 c0 -5 -2 -10 -4 -10 -3 0 -8 5 -11 10 -3 6 -1 10 4 10 6 0 11
-4 11 -10z m2820 -55 c-8 -10 -8 -14 2 -18 10 -3 9 -6 -2 -9 -8 -3 -30 -10
-47 -16 -18 -5 -33 -8 -33 -6 0 10 40 43 57 46 10 2 20 14 22 28 3 19 5 21 9
7 2 -10 -1 -24 -8 -32z m-2825 15 c3 -5 2 -10 -4 -10 -5 0 -13 5 -16 10 -3 6
-2 10 4 10 5 0 13 -4 16 -10z m2145 -14 c0 -2 -8 -10 -17 -17 -16 -13 -17 -12
-4 4 13 16 21 21 21 13z m-2609 -78 c11 -21 11 -22 -4 -9 -10 7 -17 17 -17 22
0 15 9 10 21 -13z m3173 7 c-10 -8 -27 -15 -36 -15 -10 0 -18 -5 -18 -11 0 -5
-4 -8 -10 -4 -16 10 1 36 20 30 10 -3 21 -1 25 5 3 5 14 10 23 10 13 0 13 -2
-4 -15z m-2030 -102 c3 -7 3 -13 -1 -13 -6 0 -43 40 -43 47 0 8 40 -23 44 -34z
m30 -85 c92 -92 146 -155 146 -172 0 -12 -56 18 -78 42 -39 41 -36 17 7 -65
22 -43 33 -67 23 -54 -9 12 -33 42 -53 65 -48 54 -99 136 -132 212 -28 63 -31
74 -22 74 3 0 52 -46 109 -102z m757 6 c-25 -69 -51 -103 -45 -57 l4 28 -10
-29 c-5 -16 -6 -34 -3 -39 3 -5 0 -7 -8 -5 -8 3 -19 -4 -26 -16 -18 -32 -15
-6 7 59 11 32 20 60 20 63 0 3 -23 -27 -51 -67 -28 -40 -53 -70 -56 -68 -8 9
23 60 65 107 36 41 41 43 58 30 18 -14 18 -14 5 3 -13 16 -12 21 8 40 l23 22
-7 -25 c-7 -24 -7 -24 9 -5 8 11 16 29 17 40 2 19 2 19 6 -1 2 -12 -5 -48 -16
-80z m1079 66 c0 -5 -5 -10 -11 -10 -5 0 -7 5 -4 10 3 6 8 10 11 10 2 0 4 -4
4 -10z m-1830 -54 c0 -5 -7 -1 -15 10 -8 10 -14 24 -14 29 0 6 6 1 14 -9 8
-11 15 -24 15 -30z m-1390 -26 c0 -5 -9 -10 -20 -10 -10 0 -24 -8 -29 -17 -5
-10 -28 -24 -51 -31 -73 -22 -298 -193 -231 -175 12 3 24 9 26 14 3 4 12 6 20
2 8 -3 15 0 15 6 0 6 12 11 26 11 14 0 23 4 20 8 -5 9 101 9 109 0 3 -3 3 -17
0 -31 -6 -23 -22 -33 -74 -43 -34 -7 -71 -28 -71 -40 0 -8 -12 -20 -27 -26
-16 -7 -44 -23 -63 -35 -20 -13 -48 -24 -62 -25 -15 -1 -25 -5 -23 -9 6 -9
-44 -54 -52 -46 -9 9 -34 -13 -27 -24 3 -5 -9 -24 -25 -41 -49 -53 -187 -393
-206 -510 -4 -24 -12 -48 -17 -55 -5 -7 -8 -16 -5 -20 3 -4 -1 -21 -9 -38
l-14 -30 5 30 c24 164 15 169 -14 8 -11 -61 -18 -123 -15 -138 3 -17 1 -24 -6
-20 -6 3 -10 -3 -10 -16 0 -12 -3 -20 -6 -16 -8 8 9 135 62 452 49 299 55 324
90 402 34 79 155 273 179 289 32 20 272 124 360 155 81 29 145 37 145 19z
m3625 -36 c44 -20 124 -53 177 -75 149 -59 150 -60 216 -163 129 -201 137
-227 212 -670 46 -277 62 -403 40 -321 -4 17 -18 76 -31 133 -13 56 -27 102
-31 102 -4 0 -4 7 -1 17 4 10 2 14 -4 10 -8 -5 -34 36 -39 63 0 3 -5 16 -11
30 -6 14 -22 59 -37 100 -15 41 -51 125 -80 185 -73 150 -142 225 -259 283
-48 23 -91 42 -97 42 -5 0 -10 5 -10 11 0 5 -5 7 -10 4 -6 -3 -17 1 -26 10 -9
9 -29 19 -45 22 -30 6 -38 18 -16 26 6 3 0 6 -15 6 -15 1 -30 6 -33 11 -3 6
-16 10 -28 10 -19 1 -20 2 -5 10 9 6 53 11 97 12 66 1 85 -2 101 -17 11 -10
23 -15 26 -12 4 3 13 0 21 -8 8 -8 21 -15 30 -15 8 0 -8 21 -37 47 -81 73 -90
79 -175 114 -44 18 -84 36 -89 41 -6 4 -18 8 -28 8 -12 0 -15 5 -11 16 9 25
103 10 198 -32z m-3582 -120 c56 -19 57 -30 0 -15 -21 6 -64 11 -95 11 -68 0
-96 8 -76 22 17 12 110 2 171 -18z m3487 5 c-41 -4 -100 -12 -130 -17 -30 -6
-57 -9 -58 -7 -12 11 107 33 178 33 l85 -1 -75 -8z m-960 -30 c32 -7 68 -25
99 -49 27 -22 65 -45 84 -54 35 -14 74 -70 141 -203 47 -94 27 -171 -62 -241
-90 -71 -200 -97 -390 -90 -137 5 -169 14 -274 75 -62 37 -70 39 -67 21 5 -37
2 -38 -163 -38 -150 0 -161 1 -140 16 29 20 28 48 -4 73 -37 29 -89 27 -136
-5 -39 -27 -47 -51 -26 -72 9 -9 -22 -12 -140 -12 -145 0 -152 1 -152 20 0 27
-11 25 -64 -10 -95 -65 -209 -86 -372 -70 -190 18 -307 74 -357 170 -39 74
-33 117 28 223 52 90 88 133 119 143 11 4 41 24 68 45 79 62 202 76 248 27 18
-19 19 -45 1 -33 -5 2 -13 -6 -19 -20 -14 -31 -84 -54 -107 -35 -36 30 -7 69
52 71 27 1 27 1 -7 11 -30 8 -37 7 -52 -12 -23 -28 -23 -52 0 -78 21 -26 77
-35 93 -16 13 16 39 19 39 4 0 -33 -193 -120 -266 -120 -38 0 -28 -18 14 -23
l37 -4 -44 -1 c-37 -2 -48 3 -77 32 l-34 34 -7 -26 c-3 -15 -24 -49 -45 -75
-50 -64 -51 -86 -1 -52 21 14 46 25 56 25 20 0 37 -37 37 -79 0 -38 38 -92 80
-114 33 -17 76 -18 111 -3 11 5 19 -2 30 -26 9 -21 24 -35 44 -40 46 -13 126
1 157 27 15 13 42 26 60 30 65 13 88 26 88 51 0 18 5 24 23 24 37 0 162 38
202 61 55 33 72 92 36 126 -19 17 -11 18 204 18 203 0 222 -1 209 -16 -8 -8
-14 -29 -14 -46 0 -62 86 -118 202 -130 38 -4 67 -12 74 -21 8 -11 31 -15 88
-15 l76 0 0 -34 0 -33 130 0 130 0 0 36 0 37 75 -6 c46 -4 76 -3 80 3 4 6 9
35 12 65 5 45 2 59 -12 75 -18 19 -17 20 4 20 12 0 39 -11 59 -25 37 -25 62
-32 62 -16 0 10 -69 101 -76 101 -3 0 -2 -5 2 -12 4 -7 3 -8 -4 -4 -7 4 -12
23 -12 42 0 19 -2 34 -5 34 -3 0 -19 -16 -36 -35 -25 -28 -38 -35 -68 -34
l-36 1 43 15 c23 8 42 19 42 24 0 4 -12 4 -27 -2 -29 -11 -86 -4 -143 17 l-35
13 40 1 40 2 -35 9 c-52 14 -110 43 -110 54 0 6 -4 4 -9 -3 -6 -10 -10 -10
-19 1 -10 11 -6 14 19 15 36 1 72 23 95 57 16 24 15 27 -1 45 -28 31 -118 28
-150 -5 -14 -13 -25 -20 -25 -14 0 19 52 58 83 62 18 2 37 5 44 5 7 1 35 -3
63 -9z m-2620 -16 c-8 -3 -22 -9 -31 -14 -10 -5 -16 -4 -16 4 0 7 14 13 31 14
17 0 24 -1 16 -4z m2600 -28 c17 -20 -29 -65 -66 -65 -44 0 -82 49 -57 73 13
14 110 7 123 -8z m-1503 -67 c-3 -7 -5 -2 -5 12 0 14 2 19 5 13 2 -7 2 -19 0
-25z m338 -27 c35 -20 46 -51 17 -51 -10 0 -24 11 -30 25 -14 30 -45 39 -122
33 -42 -3 -69 -11 -91 -27 -28 -21 -30 -21 -20 -3 27 50 174 63 246 23z m885
0 c14 -10 26 -26 28 -35 5 -24 -71 -56 -133 -54 l-50 1 60 7 c59 6 105 26 105
44 0 5 -7 18 -17 28 -13 14 -31 18 -87 18 -75 0 -116 -17 -116 -46 0 -19 -24
-13 -28 7 -10 51 177 75 238 30z m-1995 0 c28 -9 26 -9 -20 -11 -41 -2 -45 -3
-25 -10 24 -8 24 -8 3 -9 -13 -1 -23 -5 -23 -10 0 -5 -16 -12 -35 -15 -19 -4
-35 -11 -35 -17 0 -6 5 -7 12 -3 6 4 8 3 5 -4 -4 -5 -19 -9 -35 -7 -15 1 -31
-2 -35 -9 -6 -8 -10 -8 -14 2 -8 20 -22 14 -18 -8 5 -25 -9 -34 -34 -21 -11 6
-21 8 -23 3 -2 -4 -25 -24 -53 -45 -77 -58 -225 -208 -218 -220 3 -6 1 -7 -5
-3 -33 20 -272 -371 -256 -420 4 -14 3 -15 -4 -6 -6 10 -15 0 -31 -38 -12 -29
-20 -58 -17 -66 3 -8 2 -13 -3 -10 -10 6 -67 -136 -180 -444 -68 -187 -81
-215 -100 -218 -20 -3 -22 0 -17 25 3 15 13 73 21 128 27 171 104 433 161 547
16 33 5 22 -99 -96 -10 -12 -6 -2 8 22 14 23 43 83 65 132 85 192 263 469 388
601 35 38 98 90 138 115 70 44 210 105 284 124 39 10 149 5 195 -9z m3131 -2
c38 -11 116 -43 173 -71 93 -44 115 -61 196 -142 56 -56 120 -135 167 -206 70
-106 217 -368 282 -500 l26 -55 -60 65 -60 65 41 -95 c56 -133 114 -325 144
-481 32 -171 32 -169 -5 -169 -16 0 -30 4 -30 10 0 5 -7 7 -15 4 -10 -4 -15 0
-16 12 0 18 -1 18 -8 0 -7 -18 -8 -18 -14 -2 -4 9 0 30 8 45 13 26 12 36 -22
134 -23 65 -40 102 -45 94 -4 -7 -8 -19 -8 -27 0 -13 1 -13 10 0 8 12 10 10
10 -8 0 -15 -4 -21 -12 -16 -7 5 -8 3 -3 -6 4 -7 2 -16 -6 -21 -19 -12 -29
-11 -29 2 0 5 5 7 10 4 6 -4 10 8 10 29 0 20 -5 36 -11 36 -6 0 -8 -9 -4 -20
4 -14 2 -20 -8 -20 -23 0 -32 51 -11 63 13 7 14 11 3 17 -10 7 -10 11 0 24 14
17 32 12 30 -7 -1 -7 -1 -21 1 -32 l1 -20 8 20 c9 21 -32 144 -51 156 -6 4 -7
12 -4 18 4 6 3 11 -3 11 -6 0 -7 7 -4 17 4 11 3 14 -6 9 -7 -5 -10 -13 -8 -20
16 -42 18 -58 8 -52 -7 4 -11 -1 -11 -13 0 -12 -4 -21 -10 -21 -5 0 -11 -12
-11 -27 -2 -24 -2 -25 -6 -5 -2 12 -8 20 -13 17 -12 -8 -24 58 -15 85 5 15 13
20 26 17 16 -4 19 -1 14 14 -4 13 -2 19 9 19 13 0 13 5 0 42 -8 23 -18 46 -23
52 -10 11 -10 15 -12 44 0 13 -2 14 -6 2 -3 -8 -11 -18 -17 -22 -8 -5 -7 -8 2
-8 6 0 12 -5 12 -10 0 -6 10 -24 21 -39 22 -30 19 -51 -7 -51 -8 0 -14 -4 -14
-9 0 -14 -43 -22 -51 -9 -10 16 1 38 19 38 13 0 13 2 -1 18 -10 10 -17 27 -17
38 0 17 3 16 21 -6 17 -21 20 -21 14 -5 -12 36 -15 86 -6 80 5 -3 13 0 17 6 4
7 3 9 -4 5 -6 -4 -10 1 -9 13 2 29 -34 100 -48 95 -9 -4 -11 4 -9 26 3 21 0
29 -7 24 -7 -4 -10 -1 -7 7 6 19 -41 111 -53 104 -5 -3 -6 1 -3 9 3 8 -3 23
-14 34 -11 11 -17 24 -14 29 4 4 1 3 -7 -4 -14 -12 -6 -37 10 -28 5 3 6 -2 2
-11 -5 -12 -3 -15 6 -9 10 6 11 3 2 -13 -13 -24 -5 -52 15 -52 8 0 14 -10 14
-22 0 -17 3 -19 9 -10 6 10 11 7 19 -15 5 -15 13 -37 18 -48 7 -20 7 -20 -14
-1 -12 11 -22 15 -22 9 0 -5 10 -19 23 -30 12 -11 28 -29 35 -39 7 -10 10 -13
6 -5 -5 9 -3 12 5 7 6 -4 9 -17 6 -29 -2 -12 -2 -16 1 -8 9 18 24 -6 17 -26
-5 -12 -7 -12 -14 -1 -7 10 -9 10 -9 -2 0 -9 5 -21 11 -27 7 -7 3 -9 -15 -6
-26 5 -35 26 -16 38 6 3 10 13 10 20 0 12 -3 12 -18 -1 -20 -17 -20 -80 0
-117 5 -10 7 -21 5 -24 -3 -3 -14 18 -24 46 -10 28 -21 51 -25 51 -5 0 -8 9
-8 20 0 11 7 20 15 20 15 0 32 46 21 57 -3 4 -6 -4 -6 -17 0 -23 0 -23 -15 -4
-8 10 -15 15 -15 9 -1 -25 -20 23 -19 50 0 25 2 27 8 10 5 -11 6 -27 3 -35 -3
-8 -2 -12 3 -8 15 14 13 88 -3 97 -9 5 -23 28 -32 51 -15 40 -17 41 -33 25
-21 -21 -18 -77 6 -103 9 -10 17 -24 17 -31 0 -7 -11 0 -25 15 -14 15 -25 32
-25 39 0 7 -9 24 -20 38 -11 14 -20 29 -20 34 0 4 7 -1 15 -11 8 -11 18 -17
21 -13 4 4 1 13 -6 22 -8 10 -9 15 -1 15 6 0 11 -4 11 -10 0 -5 8 -2 18 8 11
9 16 22 13 27 -9 15 -8 54 1 49 19 -12 6 38 -18 63 -23 26 -25 26 -19 6 4 -15
2 -23 -6 -23 -9 0 -8 -4 1 -15 10 -12 10 -15 -3 -15 -9 0 -19 -17 -27 -47
l-12 -48 -34 60 c-33 59 -41 81 -26 71 4 -2 13 7 19 21 7 14 10 23 6 19 -3 -3
-15 8 -25 25 -10 16 -23 27 -29 23 -8 -4 -8 0 0 15 10 17 9 20 -4 15 -10 -4
-15 0 -15 14 0 31 29 36 36 7 7 -27 19 -33 27 -12 3 6 10 -3 17 -20 7 -18 16
-30 22 -27 6 4 8 -1 4 -14 -5 -14 -1 -22 11 -26 14 -6 15 -4 6 5 -6 6 -9 18
-6 26 6 15 -189 214 -267 273 l-45 34 40 -43 40 -43 -32 19 c-18 10 -33 22
-33 26 0 5 -5 5 -11 1 -7 -4 0 -14 18 -25 15 -10 23 -19 16 -19 -17 0 -84 60
-78 70 3 5 1 11 -5 15 -5 3 -10 1 -10 -4 0 -6 -5 -11 -10 -11 -6 0 -10 7 -8
16 2 10 -4 19 -12 21 -13 4 -13 3 0 -6 8 -6 10 -11 4 -11 -6 0 -17 6 -23 14
-18 22 12 42 32 21 9 -8 19 -15 24 -15 4 1 -3 9 -15 20 -18 15 -28 17 -42 10
-12 -7 -28 -7 -45 0 -40 15 -43 12 -10 -10 17 -11 26 -20 22 -20 -4 0 -24 11
-43 24 -30 20 -33 25 -17 29 16 4 15 5 -3 6 -12 0 -31 10 -43 20 l-22 19 23 5
c58 11 141 5 204 -14z m-2150 -69 c40 0 64 -4 64 -11 0 -16 -136 -7 -152 10
-11 12 -10 13 5 7 10 -3 48 -6 83 -6z m-806 -25 c17 -9 30 -18 30 -21 0 -3 -4
-3 -9 1 -9 5 -79 -22 -91 -36 -3 -3 -22 -13 -42 -22 -20 -10 -40 -22 -43 -27
-3 -6 -11 -10 -16 -10 -6 0 -7 5 -3 12 4 7 3 8 -5 4 -9 -6 -9 -11 0 -22 9 -11
8 -14 -3 -14 -19 0 -60 -44 -51 -55 5 -4 0 -5 -9 -2 -12 4 -15 2 -11 -9 3 -9
-1 -14 -12 -14 -11 0 -15 -5 -11 -15 3 -9 0 -15 -8 -15 -8 0 -16 -6 -19 -12
-3 -10 -7 -10 -20 0 -14 12 -16 11 -12 -6 4 -22 -38 -58 -55 -47 -9 6 -60 -66
-60 -85 0 -5 -4 -10 -9 -10 -13 0 -50 -159 -58 -245 -3 -41 -10 -73 -16 -72
-6 1 -9 -24 -8 -63 3 -83 -8 -73 -18 17 l-8 68 -1 -70 c-1 -38 5 -133 13 -210
8 -77 14 -162 14 -190 -1 -49 -1 -49 -9 -15 -19 78 -43 343 -43 470 0 151 14
227 61 330 68 151 256 332 398 384 52 19 98 19 134 1z m2707 -14 c169 -80 335
-255 389 -409 12 -37 28 -117 35 -177 11 -96 9 -141 -9 -360 -23 -264 -58
-513 -75 -530 -6 -7 -7 21 -3 80 4 50 9 162 12 250 3 88 9 173 15 189 5 16 8
45 8 65 -1 35 -2 35 -8 6 -3 -16 -6 36 -6 115 0 102 -5 170 -18 229 -24 109
-47 167 -59 149 -6 -9 -7 -6 -3 9 6 24 -8 38 -40 38 -13 0 -20 7 -21 20 -2 36
-4 40 -15 25 -9 -12 -10 -12 -5 3 3 10 6 24 6 30 0 6 14 -4 31 -23 23 -26 21
-21 -8 17 -21 29 -42 52 -46 53 -5 0 -5 -6 0 -12 23 -38 10 -44 -22 -12 -19
19 -35 39 -35 44 0 5 -5 12 -12 16 -7 5 -8 2 -3 -7 5 -8 -4 -3 -18 10 -15 13
-24 28 -21 32 3 5 -3 9 -14 9 -18 0 -67 55 -67 75 0 6 -10 11 -23 13 -12 2
-19 8 -16 14 4 6 -1 8 -16 3 -16 -5 -20 -4 -15 4 4 8 -1 10 -17 6 -16 -4 -29
-1 -37 9 -10 12 -9 14 11 10 23 -5 23 -5 1 5 -12 6 -34 8 -50 5 -27 -5 -27 -5
-8 10 34 26 112 20 182 -13z m-1743 -28 c9 -22 1 -27 -63 -48 -38 -12 -69 -16
-106 -11 -56 6 -125 31 -125 44 0 20 14 20 39 1 56 -41 197 -34 221 12 13 23
26 24 34 2z m648 -10 c24 -23 37 -27 86 -27 66 0 121 7 117 14 -2 3 8 13 21
23 24 18 24 18 24 -7 0 -21 -7 -27 -42 -37 -71 -21 -194 -15 -235 11 -16 10
-15 10 5 5 27 -8 30 11 2 20 -11 3 -20 11 -20 16 0 15 13 10 42 -18z m-2056
-30 c-4 -4 -11 -1 -16 7 -9 13 -14 7 -11 -12 0 -4 -7 -4 -16 -1 -13 5 -15 2
-9 -13 6 -15 5 -16 -5 -7 -9 9 -7 17 12 37 21 22 26 23 38 11 8 -8 11 -18 7
-22z m3131 1 c-3 -3 -12 -4 -19 -1 -8 3 -5 6 6 6 11 1 17 -2 13 -5z m-1673
-42 c-6 -9 -32 -28 -60 -42 -40 -20 -64 -25 -129 -25 -44 0 -88 5 -97 10 -12
7 13 10 85 10 111 0 162 17 182 63 6 14 13 18 20 11 6 -6 6 -15 -1 -27z m1053
22 c12 -3 24 -12 27 -19 3 -10 -11 -14 -55 -17 -56 -3 -59 -2 -59 20 0 18 5
22 33 22 17 0 42 -3 54 -6z m-516 -28 c27 -23 104 -46 154 -46 17 0 25 -6 25
-17 0 -10 -4 -14 -8 -8 -4 6 -29 11 -56 13 -54 4 -110 28 -140 61 -26 28 -11
27 25 -3z m1545 -10 c11 -23 11 -23 -17 -7 -19 10 -24 18 -16 23 18 11 21 10
33 -16z m-2483 -35 c22 -22 -99 -47 -131 -27 -21 13 -13 35 16 42 15 3 32 7
37 8 14 4 67 -12 78 -23z m-253 9 c-8 -5 -22 -10 -31 -10 -9 0 -28 -9 -42 -20
-32 -26 -38 -25 -33 3 3 22 31 33 96 36 20 0 22 -1 10 -9z m1538 3 c-10 -2
-28 -2 -40 0 -13 2 -5 4 17 4 22 1 32 -1 23 -4z m360 -2 c27 -17 9 -36 -28
-30 -30 6 -31 7 -7 8 30 1 37 17 10 24 -13 3 -14 5 -3 6 8 0 21 -3 28 -8z
m895 -28 c-5 -12 -2 -15 9 -10 12 4 14 1 11 -14 -7 -24 -22 -25 -25 -1 -2 32
-4 37 -13 52 -7 13 -6 13 7 2 10 -8 14 -20 11 -29z m-1263 13 c0 -2 -11 -6
-25 -8 -13 -3 -22 -1 -19 3 5 9 44 13 44 5z m-2475 -16 c-3 -5 -12 -10 -18
-10 -7 0 -6 4 3 10 19 12 23 12 15 0z m3713 -35 c-3 -3 -9 2 -12 12 -6 14 -5
15 5 6 7 -7 10 -15 7 -18z m-3788 -10 c-7 -9 -15 -13 -17 -11 -6 6 20 36 26
30 2 -2 -2 -10 -9 -19z m85 15 c3 -5 1 -10 -4 -10 -6 0 -11 5 -11 10 0 6 2 10
4 10 3 0 8 -4 11 -10z m1321 0 c8 0 14 -9 14 -20 0 -19 -5 -21 -67 -18 -39 2
-68 8 -70 15 -5 15 46 33 81 28 16 -3 35 -5 42 -5z m1254 6 c0 -2 -7 -6 -15
-10 -8 -3 -15 -1 -15 4 0 6 7 10 15 10 8 0 15 -2 15 -4z m-1577 -19 c3 -9 -6
-14 -31 -15 -19 -2 -38 -5 -42 -7 -3 -2 -12 1 -20 6 -13 8 -13 10 0 19 22 14
87 12 93 -3z m38 -19 c11 -21 11 -22 -4 -9 -10 7 -17 17 -17 22 0 15 9 10 21
-13z m-1065 -15 c-10 -10 -19 5 -10 18 6 11 8 11 12 0 2 -7 1 -15 -2 -18z
m698 -36 c35 -48 90 -83 180 -114 58 -20 98 -26 218 -30 134 -5 153 -4 217 17
48 15 86 36 117 63 l45 40 -3 -44 -3 -43 -65 -22 c-36 -13 -80 -24 -98 -26
-18 -2 -37 -10 -42 -18 -7 -10 -10 -11 -10 -2 0 9 -33 12 -133 12 -180 0 -278
25 -379 97 -46 33 -88 87 -88 114 0 15 4 11 44 -44z m2006 38 c0 -12 -14 -15
-65 -15 -51 0 -65 3 -65 15 0 12 14 15 65 15 51 0 65 -3 65 -15z m390 -12 c-1
-37 -101 -116 -201 -157 -74 -31 -75 -31 -259 -31 -175 0 -189 2 -266 28 -85
28 -94 37 -94 96 l0 24 20 -26 c37 -46 142 -89 249 -100 115 -13 272 2 352 32
75 29 153 85 175 126 10 19 20 35 21 35 2 0 3 -12 3 -27z m-2540 -36 c0 -29 5
-79 11 -111 8 -45 7 -61 -3 -73 -11 -14 -10 -16 13 -10 22 6 31 1 51 -26 13
-17 28 -39 33 -47 8 -13 7 -13 -8 -1 -9 7 -17 11 -17 8 0 -3 -21 3 -47 13 -27
10 -47 24 -45 29 1 6 0 11 -2 11 -14 0 -105 -55 -127 -76 -34 -32 -54 -100
-41 -134 15 -37 80 -95 146 -129 44 -24 52 -31 34 -31 -14 0 -54 15 -89 33
-52 26 -68 40 -87 77 -21 40 -23 54 -17 124 13 159 59 281 138 364 45 47 57
42 57 -21z m1379 39 c9 -10 6 -17 -13 -30 -14 -9 -33 -16 -43 -16 -13 1 -11 5
10 16 38 21 35 38 -5 30 -24 -4 -29 -3 -18 4 22 14 56 12 69 -4z m-710 -23
c32 -20 15 -35 -47 -41 -48 -4 -82 12 -82 39 0 29 83 30 129 2z m2046 -14 c66
-74 126 -233 110 -296 l-6 -25 -27 28 c-40 40 -83 64 -117 64 -39 0 -107 -19
-101 -28 3 -5 -4 -9 -15 -9 -10 -1 -19 2 -19 7 0 14 60 60 79 60 14 0 17 14
19 112 3 105 9 127 33 128 4 0 23 -18 44 -41z m-3387 -14 c-3 -3 -9 2 -12 12
-6 14 -5 15 5 6 7 -7 10 -15 7 -18z m336 -1 c3 -8 2 -12 -4 -9 -6 3 -10 1 -10
-4 0 -6 -5 -11 -10 -11 -6 0 -5 8 2 20 15 24 14 24 22 4z m3626 -27 c0 -7 -9
-13 -20 -13 -25 0 -26 13 -2 19 9 3 18 5 20 6 1 0 2 -5 2 -12z m-663 -34 c-3
-10 -5 -4 -5 12 0 17 2 24 5 18 2 -7 2 -21 0 -30z m-3257 -15 c-23 -35 -23
-31 -1 15 8 15 16 25 19 22 2 -2 -5 -19 -18 -37z m2073 5 c-35 -2 -91 -2 -125
0 -35 2 -7 3 62 3 69 0 97 -1 63 -3z m-2089 -51 c-5 -4 -18 -18 -27 -32 -13
-19 -17 -21 -17 -7 0 9 5 17 11 17 6 0 9 6 6 13 -3 8 4 14 16 15 12 0 17 -2
11 -6z m2276 -37 c0 -13 -39 -15 -295 -15 -222 0 -295 -3 -295 -12 0 -12 -29
21 -30 35 0 4 140 7 310 7 269 0 310 -2 310 -15z m227 -35 c2 0 3 -4 3 -10 0
-13 -123 33 -128 48 -2 6 25 0 59 -13 35 -14 64 -25 66 -25z m-2567 36 c0 -3
-4 -8 -10 -11 -5 -3 -10 -1 -10 4 0 6 5 11 10 11 6 0 10 -2 10 -4z m1620 -10
c-18 -16 -120 -50 -128 -42 -2 3 4 9 14 12 10 4 39 15 64 25 55 22 69 23 50 5z
m-1606 -24 c-5 -4 -18 -24 -29 -44 -10 -21 -21 -36 -23 -33 -2 2 2 13 8 25 7
12 10 29 7 39 -3 11 3 16 21 18 14 0 21 -2 16 -5z m-137 -44 c-3 -8 -6 -5 -6
6 -1 11 2 17 5 13 3 -3 4 -12 1 -19z m883 -29 c44 -20 80 -46 80 -59 0 -3 -17
-16 -38 -27 -20 -12 -48 -39 -62 -61 l-24 -39 -39 21 c-88 47 -111 114 -56
160 37 32 77 33 139 5z m2664 6 c42 -20 56 -46 49 -90 -7 -46 -52 -79 -98 -70
-51 9 -54 10 -93 48 -21 20 -43 37 -50 37 -31 0 8 37 77 71 44 22 74 23 115 4z
m-2463 -101 c30 -9 72 -25 93 -36 34 -17 37 -22 25 -32 -9 -6 -19 -24 -23 -40
l-7 -29 35 31 c57 50 134 54 204 12 31 -19 50 -51 66 -110 6 -19 5 -21 -3 -10
-9 13 -11 12 -11 -4 0 -15 -8 -10 -36 22 -33 39 -40 42 -84 42 -44 0 -50 -3
-69 -34 -12 -18 -21 -42 -21 -53 0 -11 -7 -20 -15 -20 -10 0 -12 4 -6 10 22
22 -1 34 -62 31 -81 -3 -107 8 -108 43 0 15 -3 23 -5 17 -5 -12 -51 -7 -60 7
-3 5 2 6 10 3 9 -3 16 -2 16 2 0 12 -91 60 -106 56 -6 -1 -14 4 -18 13 -3 8
-2 15 3 15 5 0 11 9 14 19 5 20 70 60 98 61 8 0 40 -7 70 -16z m2263 1 c36
-15 76 -66 75 -95 0 -9 -4 -5 -9 8 -5 12 -15 22 -22 22 -8 0 -9 -3 -3 -8 6 -4
11 -18 13 -31 2 -24 2 -24 -18 -6 -19 17 -22 17 -90 -16 l-70 -34 6 -40 c4
-22 3 -37 -1 -33 -4 4 -18 2 -32 -3 -17 -6 -30 -6 -38 1 -6 5 -14 8 -16 5 -3
-2 -21 -6 -42 -8 -33 -4 -39 -1 -57 28 -23 37 -38 45 -85 45 -54 0 -88 -36
-95 -101 l-6 -54 -12 43 c-23 78 8 156 77 192 74 37 133 24 195 -45 l28 -30
-25 46 c-13 26 -22 51 -18 56 9 15 50 35 111 54 69 22 88 23 134 4z m-1797
-62 c-3 -10 -5 -2 -5 17 0 19 2 27 5 18 2 -10 2 -26 0 -35z m2058 -73 c-21
-23 -130 -80 -154 -80 -25 0 -1 17 84 60 94 46 93 46 70 20z m-1035 -42 c0
-23 43 -54 85 -62 33 -6 50 -26 23 -26 -26 1 -97 39 -106 57 -14 28 -25 82
-12 63 5 -8 10 -23 10 -32z m-1171 -11 c18 -22 24 -73 12 -96 -10 -17 -21 -21
-62 -21 -48 0 -51 2 -65 35 -18 45 -18 51 6 75 23 23 91 27 109 7z m1609 -9
c7 -7 12 -31 12 -55 0 -39 -2 -43 -34 -51 -36 -10 -83 -5 -103 11 -19 14 -16
51 8 81 16 21 29 26 63 26 23 0 47 -5 54 -12z m1712 -31 c0 -20 0 -20 -15 -1
-19 25 -19 35 0 28 8 -4 15 -16 15 -27z m-3003 5 c-17 -18 -87 -45 -95 -37 -3
2 8 9 24 15 16 5 40 17 54 25 33 19 36 19 17 -3z m-1810 -14 c-3 -8 -6 -5 -6
6 -1 11 2 17 5 13 3 -3 4 -12 1 -19z m1202 -24 c3 -4 -2 -4 -12 -1 -10 4 -27
7 -38 7 -10 0 -19 4 -19 9 0 10 58 -3 69 -15z m81 -4 c0 -5 -6 -10 -14 -10 -8
0 -18 5 -21 10 -3 6 3 10 14 10 12 0 21 -4 21 -10z m-358 -133 c141 -106 342
-170 451 -143 29 8 64 16 79 20 15 3 37 16 49 29 13 13 20 16 17 7 -6 -21 -63
-58 -112 -72 -62 -19 -181 -16 -250 7 -33 10 -104 46 -160 79 -104 63 -149
110 -161 171 -6 24 -1 20 24 -22 17 -28 45 -63 63 -76z m-1034 88 c-3 -3 -9 2
-12 12 -6 14 -5 15 5 6 7 -7 10 -15 7 -18z m3773 -22 c-31 -58 -160 -157 -255
-197 -55 -23 -160 -46 -210 -46 -93 0 -237 72 -258 130 -8 21 -4 19 25 -12 49
-53 186 -106 243 -93 10 3 37 6 59 8 22 2 45 6 50 9 6 3 41 15 78 28 79 26
205 106 245 156 30 38 38 43 23 17z m981 -61 c-7 -2 -12 -10 -12 -18 0 -8 -7
-17 -15 -20 -8 -4 -15 -16 -15 -28 0 -16 -2 -18 -9 -7 -13 21 35 95 54 83 5
-3 4 -7 -3 -10z m-4795 -34 c-3 -8 -6 -5 -6 6 -1 11 2 17 5 13 3 -3 4 -12 1
-19z m60 -40 c-3 -8 -6 -5 -6 6 -1 11 2 17 5 13 3 -3 4 -12 1 -19z m-27 -59
c-17 -41 -22 -31 -8 17 6 21 13 33 15 26 3 -7 -1 -26 -7 -43z m4730 -1 c0 -6
-7 -5 -15 2 -8 7 -15 17 -15 22 0 6 7 5 15 -2 8 -7 15 -17 15 -22z m97 -71
c-1 -19 -7 -34 -13 -34 -8 0 -9 10 -3 31 5 17 9 32 9 33 0 2 2 3 4 3 3 0 4
-15 3 -33z m-4944 -22 c-3 -9 -8 -14 -10 -11 -3 3 -2 9 2 15 9 16 15 13 8 -4z
m4901 -17 c-3 -5 -10 -6 -15 -2 -6 3 -8 -4 -6 -18 2 -12 2 -17 0 -10 -3 6 -9
12 -14 12 -5 0 -9 6 -9 13 0 7 11 13 24 13 14 0 22 -4 20 -8z m-4827 -40 c-3
-8 -6 -5 -6 6 -1 11 2 17 5 13 3 -3 4 -12 1 -19z m-19 -84 c-10 -32 -13 -35
-16 -16 -2 13 1 29 7 36 6 8 9 22 5 32 -5 16 -4 17 5 3 7 -11 7 -28 -1 -55z
m-24 8 c-7 -40 -20 -60 -31 -48 -4 4 -2 11 5 15 7 4 14 24 15 43 1 20 6 34 10
31 4 -2 5 -21 1 -41z m4868 11 c-5 -27 -5 -27 -14 -4 -8 24 -2 45 11 36 5 -2
6 -17 3 -32z m88 17 c0 -5 -13 -10 -29 -10 -17 0 -33 5 -36 10 -4 6 8 10 29
10 20 0 36 -4 36 -10z m-4644 -177 c-3 -21 -10 -78 -16 -128 -6 -49 -13 -100
-16 -112 l-4 -23 -348 0 c-363 -1 -397 -4 -444 -47 -36 -32 -45 -65 -82 -283
-88 -529 -118 -753 -107 -782 20 -53 30 -54 184 -24 159 31 209 52 233 98 15
29 59 316 50 325 -2 3 -46 0 -97 -5 -52 -5 -96 -7 -98 -6 -4 4 35 308 45 349
5 20 12 20 317 18 l312 -2 -3 -33 c-2 -18 -14 -136 -27 -263 -13 -126 -27
-268 -31 -314 -6 -79 -10 -87 -58 -159 -125 -185 -266 -311 -408 -365 -163
-61 -397 -101 -557 -95 -101 4 -124 8 -179 33 -68 30 -136 96 -167 160 -15 32
-15 47 -5 123 27 205 204 1211 221 1258 34 91 172 221 285 269 96 40 135 43
577 44 l429 1 -6 -37z m999 22 c82 -22 148 -60 210 -123 60 -59 90 -114 104
-187 12 -62 -4 -299 -24 -380 -36 -138 -117 -220 -263 -264 l-53 -16 111 -185
c62 -102 141 -234 177 -293 35 -60 62 -111 59 -114 -3 -4 -81 -12 -173 -19
-93 -7 -204 -16 -248 -19 l-81 -8 -96 179 c-53 99 -125 235 -161 304 -36 69
-72 126 -80 128 -15 3 -21 -45 -56 -430 -9 -109 -19 -199 -22 -201 -6 -5 -470
-69 -474 -65 -1 2 1 35 6 73 14 111 107 944 124 1115 9 85 22 207 30 270 7 63
17 145 20 183 l7 67 412 0 c338 0 422 -3 471 -15z m1419 -13 c127 -47 225
-132 279 -241 l32 -65 7 -261 c4 -143 8 -337 10 -431 l2 -170 -40 -85 c-46
-95 -121 -184 -189 -224 -91 -53 -179 -68 -405 -68 -159 -1 -222 3 -279 16
-152 35 -257 119 -328 265 l-38 76 2 181 c1 99 8 300 16 447 14 267 14 267 45
331 57 115 186 211 326 243 44 10 121 13 281 10 196 -2 226 -5 279 -24z m1679
-24 c4 -29 9 -97 13 -150 l7 -98 -319 0 c-289 0 -323 -2 -360 -19 -67 -30 -68
-40 -55 -359 21 -485 26 -513 89 -546 15 -7 80 -21 145 -30 224 -30 222 -31
212 148 l-7 126 -32 4 c-17 3 -61 8 -97 11 l-67 6 -6 112 c-4 62 -9 130 -12
152 l-5 40 304 0 305 0 6 -40 c3 -22 17 -180 32 -352 l27 -311 -26 -54 c-36
-72 -117 -169 -165 -195 -67 -38 -146 -53 -282 -53 -389 0 -615 90 -751 298
-90 137 -89 133 -105 592 -8 223 -12 421 -8 440 16 97 116 218 225 272 107 54
133 57 545 57 l381 1 6 -52z m720 -185 c15 -131 45 -398 67 -593 60 -548 55
-526 134 -561 53 -23 330 -73 363 -64 41 10 48 43 34 163 -12 106 -166 1197
-177 1260 l-6 32 216 0 c119 0 216 -3 216 -7 0 -5 9 -64 21 -133 122 -746 229
-1448 229 -1506 0 -75 -94 -174 -203 -216 -55 -20 -78 -23 -212 -23 -220 1
-470 51 -625 126 -72 35 -100 57 -185 143 -109 111 -201 238 -209 289 -3 18
-12 115 -21 217 -9 102 -36 388 -61 636 -24 249 -44 457 -44 463 0 8 64 11
218 11 l217 0 28 -237z m-3195 -1590 l-3 -58 -67 -3 -68 -3 0 -174 0 -175 -65
0 -65 0 0 175 0 175 -70 0 -70 0 0 60 0 60 205 0 206 0 -3 -57z m470 0 l-3
-58 -117 3 -118 3 0 -35 0 -36 71 0 71 0 -7 -47 c-4 -27 -9 -51 -11 -54 -2 -3
-30 -5 -64 -5 l-60 2 0 -38 0 -38 121 0 120 0 -3 -52 -3 -53 -182 -3 -183 -2
0 212 c0 117 -3 223 -6 236 l-6 22 191 0 192 0 -3 -57z m492 -3 l0 -60 -92 5
c-51 3 -107 2 -126 -1 l-33 -6 3 -117 3 -116 125 -2 124 -1 2 -29 c2 -15 0
-41 -3 -56 l-5 -28 -159 3 c-157 3 -159 3 -185 30 -35 34 -40 71 -34 238 5
128 7 140 29 164 30 32 37 33 209 35 l142 1 0 -60z m250 -30 l0 -90 85 0 85 0
0 90 0 90 64 0 63 0 7 -37 c3 -21 6 -127 6 -235 l0 -198 -70 0 -70 0 0 90 0
90 -85 0 -85 0 0 -90 0 -90 -64 0 -64 0 -5 43 c-3 23 -6 129 -6 235 l-2 192
71 0 70 0 0 -90z m-1900 -154 c0 -56 -2 -64 -17 -61 -10 2 -84 12 -165 21
l-148 17 0 44 0 43 165 0 165 0 0 -64z m2805 28 c3 -20 3 -40 -2 -44 -4 -5
-69 -16 -143 -24 -74 -9 -145 -19 -157 -21 -20 -5 -21 0 -25 56 -1 33 -1 63 1
65 2 2 75 4 162 4 l157 0 7 -36z"/>
<path d="M5355 9533 c-22 -2 -76 -8 -120 -14 -44 -6 -91 -12 -105 -14 -45 -4
-48 -5 -53 -18 -4 -10 2 -13 19 -9 13 2 22 7 20 11 -3 4 14 7 37 8 l42 1 -35
-11 -35 -11 34 -4 c19 -2 51 -1 70 3 l36 7 -30 14 -30 14 43 -4 c23 -2 40 -1
37 4 -2 4 24 6 60 5 35 -1 92 4 127 11 l63 12 -70 -1 c-38 0 -88 -2 -110 -4z"/>
<path d="M5547 9523 c-4 -3 -24 -9 -44 -13 -36 -7 -35 -8 17 -9 37 0 50 2 40
9 -10 6 4 10 45 13 l60 3 -56 2 c-31 1 -59 -1 -62 -5z"/>
<path d="M5686 9502 c10 -9 18 -11 22 -5 4 5 14 12 22 15 8 3 -2 6 -22 6 -34
0 -36 -1 -22 -16z"/>
<path d="M5623 9503 c9 -2 23 -2 30 0 6 3 -1 5 -18 5 -16 0 -22 -2 -12 -5z"/>
<path d="M5785 9499 c22 -4 51 -8 65 -7 16 0 11 3 -15 9 -22 4 -51 8 -65 7
-16 0 -11 -3 15 -9z"/>
<path d="M5368 9493 c7 -3 16 -2 19 1 4 3 -2 6 -13 5 -11 0 -14 -3 -6 -6z"/>
<path d="M5558 9483 c7 -3 16 -2 19 1 4 3 -2 6 -13 5 -11 0 -14 -3 -6 -6z"/>
<path d="M5626 9482 c-3 -5 8 -6 25 -4 16 2 29 6 29 8 0 8 -49 4 -54 -4z"/>
<path d="M5710 9480 c-20 -6 -21 -8 -5 -8 11 0 29 3 40 8 25 11 -1 11 -35 0z"/>
<path d="M5875 9479 c-28 -6 -26 -7 13 -8 42 -1 53 3 30 11 -7 2 -26 1 -43 -3z"/>
<path d="M5945 9470 c-5 -8 32 -24 49 -21 5 1 33 -4 63 -10 35 -8 49 -15 41
-21 -11 -6 -11 -8 0 -8 7 0 11 -4 7 -9 -3 -6 7 -6 26 -1 42 12 45 16 17 24
-13 3 -62 17 -110 30 -48 14 -90 21 -93 16z"/>
<path d="M5748 9463 c7 -3 16 -2 19 1 4 3 -2 6 -13 5 -11 0 -14 -3 -6 -6z"/>
<path d="M5023 9453 c9 -2 23 -2 30 0 6 3 -1 5 -18 5 -16 0 -22 -2 -12 -5z"/>
<path d="M4978 9443 c7 -3 16 -2 19 1 4 3 -2 6 -13 5 -11 0 -14 -3 -6 -6z"/>
<path d="M5930 9446 c0 -2 7 -7 16 -10 8 -3 12 -2 9 4 -6 10 -25 14 -25 6z"/>
<path d="M6180 9400 c0 -5 -10 -10 -22 -10 -18 0 -20 -2 -8 -10 9 -5 19 -5 27
1 8 7 18 7 30 -1 16 -10 16 -11 1 -6 -10 3 -18 1 -18 -3 0 -13 28 -21 47 -14
11 4 14 3 9 -5 -5 -8 2 -10 25 -5 21 4 30 3 26 -4 -4 -6 0 -14 9 -17 24 -9 31
-7 14 4 -8 5 -10 10 -5 10 13 0 43 -20 30 -20 -16 0 18 -20 35 -20 13 0 13 1
0 11 -12 8 -8 9 15 5 21 -3 11 4 -30 24 -33 16 -68 28 -78 25 -11 -2 -16 -1
-13 3 4 3 -15 14 -41 24 -56 21 -53 21 -53 8z"/>
<path d="M4415 9280 c-3 -6 1 -7 9 -4 18 7 21 14 7 14 -6 0 -13 -4 -16 -10z"/>
<path d="M4950 8880 c0 -5 5 -10 11 -10 5 0 7 -5 3 -12 -4 -7 -3 -8 4 -4 6 4
9 13 5 21 -6 17 -23 20 -23 5z"/>
<path d="M4414 8538 c-31 -36 -65 -88 -58 -88 8 0 73 70 85 93 14 24 -4 21
-27 -5z"/>
<path d="M5747 7983 c-4 -3 -7 -11 -7 -17 0 -6 5 -5 12 2 6 6 9 14 7 17 -3 3
-9 2 -12 -2z"/>
<path d="M6720 7915 c0 -5 5 -17 10 -25 5 -8 10 -10 10 -5 0 6 -5 17 -10 25
-5 8 -10 11 -10 5z"/>
<path d="M6735 7860 c3 -5 8 -10 11 -10 2 0 4 5 4 10 0 6 -5 10 -11 10 -5 0
-7 -4 -4 -10z"/>
<path d="M5270 7780 c20 -13 33 -13 25 0 -3 6 -14 10 -23 10 -15 0 -15 -2 -2
-10z"/>
<path d="M1923 8313 c9 -2 25 -2 35 0 9 3 1 5 -18 5 -19 0 -27 -2 -17 -5z"/>
<path d="M2013 8303 c9 -2 25 -2 35 0 9 3 1 5 -18 5 -19 0 -27 -2 -17 -5z"/>
<path d="M8883 8303 c9 -2 25 -2 35 0 9 3 1 5 -18 5 -19 0 -27 -2 -17 -5z"/>
<path d="M8907 8163 c-4 -3 -7 -11 -7 -17 0 -6 5 -5 12 2 6 6 9 14 7 17 -3 3
-9 2 -12 -2z"/>
<path d="M8864 8128 l-19 -23 23 19 c21 18 27 26 19 26 -2 0 -12 -10 -23 -22z"/>
<path d="M8700 7951 c0 -6 4 -13 10 -16 6 -3 7 1 4 9 -7 18 -14 21 -14 7z"/>
<path d="M8672 7915 c-17 -37 -15 -41 8 -15 11 12 17 27 14 31 -8 13 -10 12
-22 -16z"/>
<path d="M8645 7860 c-2 -3 5 -7 16 -7 10 -1 19 2 19 6 0 9 -29 10 -35 1z"/>
<path d="M8596 7780 c-10 -17 -16 -34 -13 -37 8 -7 40 44 35 57 -2 6 -12 -3
-22 -20z"/>
<path d="M8556 7713 c-3 -10 -24 -37 -47 -61 -23 -23 -39 -45 -37 -48 3 -3 24
16 46 41 22 25 44 45 49 45 5 0 9 9 10 20 2 25 -14 26 -21 3z"/>
<path d="M8340 7615 c-24 -25 -42 -45 -39 -45 3 0 25 20 49 45 24 25 42 45 39
45 -3 0 -25 -20 -49 -45z"/>
<path d="M8353 7453 c0 -8 6 -9 19 -2 10 5 18 11 18 12 0 2 -8 3 -18 3 -10 0
-19 -6 -19 -13z"/>
<path d="M8064 7325 c-10 -8 -14 -15 -8 -15 6 0 17 7 24 15 16 19 9 19 -16 0z"/>
<path d="M7610 7160 c-24 -15 -7 -19 20 -5 15 8 19 14 10 14 -8 1 -22 -3 -30
-9z"/>
<path d="M7788 7154 c-16 -8 -28 -17 -28 -19 0 -6 52 16 65 27 15 13 -7 9 -37
-8z"/>
<path d="M2310 7747 c0 -2 11 -17 25 -33 14 -16 25 -24 25 -19 -1 18 -50 69
-50 52z"/>
<path d="M2379 7663 c6 -12 16 -25 21 -28 17 -11 11 5 -11 28 l-21 22 11 -22z"/>
<path d="M2500 7556 c0 -2 8 -10 18 -17 15 -13 16 -12 3 4 -13 16 -21 21 -21
13z"/>
<path d="M2540 7516 c0 -2 7 -7 16 -10 8 -3 12 -2 9 4 -6 10 -25 14 -25 6z"/>
<path d="M3060 7231 c0 -8 179 -73 191 -69 6 2 -35 20 -90 39 -56 20 -101 33
-101 30z"/>
<path d="M3786 7777 c3 -10 9 -15 12 -12 3 3 0 11 -7 18 -10 9 -11 8 -5 -6z"/>
<path d="M4140 7174 c0 -6 7 -19 15 -30 8 -10 14 -14 14 -9 0 6 -6 19 -14 29
-8 11 -15 15 -15 10z"/>
<path d="M5021 7109 c-70 -20 -106 -47 -116 -87 -3 -15 -9 -36 -12 -47 -3 -13
8 -6 33 21 62 67 138 74 249 25 24 -11 84 -29 132 -42 128 -32 225 -24 369 31
141 53 189 60 240 31 22 -12 50 -36 62 -54 l24 -32 -7 39 c-12 72 -35 92 -133
119 -57 16 -68 14 -239 -41 -169 -56 -213 -51 -523 51 -8 2 -44 -4 -79 -14z"/>
<path d="M6630 7035 c7 -8 17 -15 22 -15 6 0 5 7 -2 15 -7 8 -17 15 -22 15 -6
0 -5 -7 2 -15z"/>
<path d="M4350 6993 c0 -5 12 -9 27 -10 19 -1 22 1 12 8 -17 11 -39 12 -39 2z"/>
<path d="M5225 6875 c11 -10 49 -31 85 -48 76 -37 163 -41 245 -14 51 17 120
55 114 62 -2 2 -29 -3 -59 -11 -101 -26 -282 -17 -385 20 l-20 8 20 -17z"/>
<path d="M4219 6829 c0 -2 -2 -12 -4 -21 -2 -10 1 -20 6 -24 5 -3 9 2 9 11 0
9 5 13 10 10 6 -4 10 -12 9 -18 -3 -22 1 -37 9 -37 18 0 9 39 -14 61 -13 12
-24 21 -25 18z"/>
<path d="M4292 6754 c10 -10 20 -15 24 -12 3 4 -5 12 -18 18 -22 12 -22 12 -6
-6z"/>
<path d="M4587 6569 c5 -5 27 -12 49 -14 44 -6 37 -1 -20 14 -26 7 -36 7 -29
0z"/>
<path d="M4210 6170 c0 -11 5 -20 10 -20 6 0 10 9 10 20 0 11 -4 20 -10 20 -5
0 -10 -9 -10 -20z"/>
<path d="M6837 6245 c3 -8 9 -12 14 -9 12 7 11 11 -5 17 -10 4 -13 1 -9 -8z"/>
<path d="M4526 6145 c-3 -9 -6 -22 -5 -28 0 -7 5 -1 10 12 5 13 8 26 5 28 -2
2 -6 -3 -10 -12z"/>
<path d="M4630 5934 c0 -6 7 -19 16 -30 14 -18 14 -18 3 6 -14 31 -19 36 -19
24z"/>
<path d="M6301 6034 c0 -11 3 -14 6 -6 3 7 2 16 -1 19 -3 4 -6 -2 -5 -13z"/>
<path d="M5190 5975 c13 -14 25 -25 27 -25 9 0 -33 49 -41 50 -5 0 1 -11 14
-25z"/>
<path d="M3750 5840 c0 -5 5 -10 10 -10 6 0 10 5 10 10 0 6 -4 10 -10 10 -5 0
-10 -4 -10 -10z"/>
<path d="M7390 5411 c0 -6 4 -13 10 -16 6 -3 7 1 4 9 -7 18 -14 21 -14 7z"/>
<path d="M4437 5179 c7 -7 15 -10 18 -7 3 3 -2 9 -12 12 -14 6 -15 5 -6 -5z"/>
<path d="M5352 5060 c-51 -47 -14 -80 91 -80 123 0 167 30 113 77 -23 20 -38
23 -105 23 -64 0 -81 -4 -99 -20z m178 -19 c0 -14 -28 -21 -85 -21 -51 0 -73
9 -58 24 10 10 143 7 143 -3z"/>
<path d="M3755 5170 c3 -5 11 -10 16 -10 6 0 7 5 4 10 -3 6 -11 10 -16 10 -6
0 -7 -4 -4 -10z"/>
<path d="M7143 5176 c4 -10 7 -25 7 -33 0 -9 3 -13 7 -9 13 12 11 31 -5 46
-14 13 -15 12 -9 -4z"/>
<path d="M7463 4800 c-3 -11 -12 -20 -19 -20 -16 0 -19 -16 -4 -25 6 -3 13 1
16 9 8 20 24 21 24 2 0 -8 -7 -16 -15 -20 -8 -3 -15 -10 -15 -16 0 -6 7 -4 16
4 8 9 20 16 26 16 5 0 7 8 4 17 -4 9 -1 20 6 24 7 4 9 12 4 16 -5 4 -11 2 -13
-4 -3 -7 -9 -13 -15 -13 -6 0 -8 7 -4 15 3 8 3 15 0 15 -3 0 -8 -9 -11 -20z"/>
<path d="M7560 4701 c0 -5 7 -15 17 -22 15 -13 15 -12 4 9 -12 23 -21 28 -21
13z"/>
<path d="M7760 4270 c0 -5 5 -10 10 -10 6 0 10 5 10 10 0 6 -4 10 -10 10 -5 0
-10 -4 -10 -10z"/>
<path d="M7800 4190 c-1 -3 -3 -13 -5 -23 -5 -29 -15 -33 -15 -7 0 29 -5 24
-14 -15 -5 -22 -4 -26 4 -15 9 13 10 13 10 0 1 -8 8 -2 16 13 8 16 13 34 10
40 -2 7 -5 10 -6 7z"/>
<path d="M7980 3755 c0 -5 5 -17 10 -25 5 -8 10 -10 10 -5 0 6 -5 17 -10 25
-5 8 -10 11 -10 5z"/>
<path d="M6914 5071 c8 -14 24 -25 35 -26 11 -1 18 2 15 7 -3 5 -11 7 -17 5
-6 -2 -20 6 -30 17 -18 21 -18 21 -3 -3z"/>
<path d="M7036 4967 c3 -10 9 -15 12 -12 3 3 0 11 -7 18 -10 9 -11 8 -5 -6z"/>
<path d="M7110 4840 c0 -5 5 -10 10 -10 6 0 10 5 10 10 0 6 -4 10 -10 10 -5 0
-10 -4 -10 -10z"/>
<path d="M3840 3318 c0 -7 -7 -76 -15 -153 -8 -77 -15 -157 -15 -178 l0 -39
143 4 c210 5 236 24 245 181 9 172 -20 197 -227 197 -98 0 -131 -3 -131 -12z"/>
<path d="M5313 3323 c-12 -2 -33 -17 -47 -33 -31 -37 -35 -88 -38 -497 -3
-303 -2 -313 17 -333 19 -19 34 -20 175 -21 l154 -1 23 27 23 26 0 370 c0 407
-2 424 -59 453 -22 12 -56 16 -128 15 -54 -1 -108 -4 -120 -6z"/>
<path d="M1771 3844 c0 -11 3 -14 6 -6 3 7 2 16 -1 19 -3 4 -6 -2 -5 -13z"/>
</g>
</svg>
